<svg width="71" height="30" viewBox="0 0 71 30" fill="none" xmlns="http://www.w3.org/2000/svg">
<rect x="1" y="1" width="69" height="28" rx="2" stroke="#CACACA"/>
<path fill-rule="evenodd" clip-rule="evenodd" d="M23.4634 14.0579V13.0621L23.0499 14.0623H20.646L20.2327 13.0769V14.0582H15.6018L15.0726 12.7748H13.8844L13.3537 14.0582H11V12.8958H11.0001H12.496L13.0308 11.6071H15.8989L16.4282 12.8958H19.23V8.36673L21.2326 12.8958H22.4421L24.4395 8.37074L24.4447 12.8958H25.8566V7.118H23.5632L21.9071 11.0375L20.1044 7.118H17.856V12.5884L15.5134 7.118H13.4667L11.0001 12.8958V9.83113L12.6682 5.99976H16.2604L16.7232 6.95142V5.99976H20.9352L21.8567 8.0811L22.754 5.99976H36.1268C36.7344 5.99976 37.2811 6.11335 37.6824 6.4703V5.99976H41.3429V6.4703C41.9733 6.124 42.7536 5.99976 43.6416 5.99976H48.9459L49.438 6.95142V5.99976H53.3648L53.9007 6.95142V5.99976H57.7275V14.0579H53.8605L53.1299 12.839V14.058H48.3045L47.7804 12.7747H46.5923L46.0563 14.058H43.5522C42.5696 14.058 41.823 13.8255 41.3429 13.5675V14.058H35.3906V12.2293C35.3906 11.9712 35.3453 11.9568 35.1892 11.9513H34.9665L34.9719 14.0579H23.4634ZM14.4853 8.10458L13.5479 10.4079H15.4283L14.4853 8.10458ZM46.2129 10.4082L47.161 8.10482L48.1143 10.4082H46.2129ZM36.5041 8.98254C36.5041 9.23504 36.3989 9.43836 36.2201 9.53184C36.0309 9.64707 35.8068 9.65102 35.5388 9.65095H33.8653V8.36758H35.5615C35.8016 8.36758 36.0521 8.37836 36.2148 8.47171C36.3936 8.55592 36.5041 8.73511 36.5041 8.98254ZM55.468 22.8608H58.1282C59.0105 22.8608 59.6628 22.6121 59.9972 22.1215V23.6238C59.4453 23.891 58.7199 23.9954 57.9772 23.9954H54.4078V23.4792C53.9944 23.8123 53.2475 23.9954 52.5332 23.9954H41.2805V22.1319C41.2805 21.9035 41.2579 21.8939 41.0299 21.8939H40.8513V23.9959H37.1472V21.8196C36.5271 22.0883 35.8243 22.1125 35.2285 22.1029H34.7869V24L30.2961 23.9962L29.192 22.7422L28.02 23.9962H20.7344V15.9319H28.1598L29.2252 17.1661L30.3626 15.9319H35.3336C35.9081 15.9319 36.8511 15.9924 37.2749 16.404V15.9319H41.7166C42.1338 15.9319 43.0381 16.0163 43.574 16.404V15.9319H50.3077V16.404C50.6425 16.0818 51.3503 15.9319 51.9531 15.9319H55.7239V16.404C56.1197 16.1167 56.6786 15.9319 57.448 15.9319H59.9973V17.0818H57.2534C55.8079 17.0818 55.277 17.9641 55.277 18.8023C55.277 20.5115 56.6866 20.5498 57.9269 20.5834L57.927 20.5834L57.9272 20.5835L57.9274 20.5835L57.9277 20.5835H57.9278H57.9278H57.9279H57.9279H57.9279H57.928H57.928H57.928C58.0143 20.5858 58.0998 20.5881 58.184 20.591C58.4239 20.591 58.5695 20.6312 58.6694 20.7194C58.7709 20.7994 58.8377 20.9331 58.8377 21.1015C58.8377 21.2591 58.7709 21.3891 58.6749 21.4784C58.5641 21.587 58.3801 21.6215 58.1175 21.6215H55.468V22.8608ZM35.2867 20.9565H33.5679V22.8949H30.8906L29.1944 20.9819L27.4317 22.895H21.9754V17.1158H27.5157L29.2103 19.0102L30.9624 17.1158H35.364C36.4572 17.1158 37.6855 17.4193 37.6855 19.0197C37.6855 20.6251 36.4908 20.9565 35.2867 20.9565ZM43.7802 21.7493C43.7746 21.2398 43.7465 20.9765 43.5519 20.6944C43.4344 20.5261 43.1838 20.3228 42.8773 20.2094C43.24 20.0648 43.8535 19.5942 43.8537 18.6719C43.8537 18.0126 43.5801 17.6518 43.1454 17.3885C42.6933 17.1468 42.1855 17.1158 41.4879 17.1158H38.3078V22.895H39.6918V20.7843H41.1638C41.6665 20.7843 41.9734 20.8337 42.1745 21.0407C42.405 21.2826 42.401 21.7239 42.3979 22.0631V22.0632C42.3975 22.1008 42.3972 22.1372 42.3972 22.172V22.895H43.7802V21.7493ZM49.2421 18.3108H46.0164V19.3614H49.1633V20.5406H46.0164V21.6904L49.2421 21.6955V22.8947H44.6447V17.1156H49.2421V18.3108ZM50.0989 22.8948H52.7818C54.171 22.8948 54.9458 22.3144 54.9459 21.0712C54.9459 20.4764 54.8018 20.125 54.5338 19.8468C54.2218 19.53 53.7083 19.4001 52.9608 19.3821L52.2192 19.3619C51.9845 19.3619 51.8285 19.3471 51.6831 19.2964C51.5099 19.2323 51.3817 19.0839 51.3817 18.8659C51.3817 18.6827 51.4377 18.5439 51.5887 18.4503C51.7272 18.3553 51.89 18.3457 52.1405 18.3457H54.6675V17.1158H51.9058C50.4618 17.1158 49.9364 17.9981 49.9364 18.8364C49.9364 20.5452 51.3452 20.5838 52.581 20.6176C52.6677 20.62 52.7535 20.6223 52.8379 20.6252C53.0776 20.6252 53.223 20.6652 53.3285 20.7533C53.4228 20.8335 53.4965 20.9672 53.4965 21.1357C53.4965 21.2931 53.4284 21.4231 53.3338 21.5124C53.2177 21.6209 53.0324 21.6556 52.7711 21.6556H50.0989V22.8948ZM42.0984 18.4041C41.932 18.3049 41.6864 18.2997 41.4412 18.2997H39.745V19.5976H41.4185C41.6864 19.5976 41.9143 19.5881 42.0984 19.4785C42.2769 19.3703 42.3838 19.1709 42.3838 18.9238C42.3838 18.6767 42.2769 18.4977 42.0984 18.4041ZM56.9318 18.4041C57.0721 18.3092 57.2386 18.2997 57.4892 18.2997L57.4893 18.2998H60V19.9441L59.9828 19.9216C59.9509 19.8797 59.9196 19.8385 59.8722 19.8012C59.5656 19.4845 59.0625 19.3545 58.3093 19.3358L57.5625 19.3159C57.3331 19.3159 57.1772 19.3011 57.0318 19.2504C56.8533 19.1862 56.7307 19.0378 56.7307 18.8199C56.7307 18.6366 56.7864 18.4978 56.9318 18.4041ZM35.3352 18.2997H33.5391V19.7716H35.3192C35.8484 19.7716 36.1776 19.5082 36.1778 19.0083C36.1776 18.5029 35.8324 18.2997 35.3352 18.2997ZM23.3477 19.3504V18.2997H26.8012L28.3079 19.9839L26.7343 21.6793H23.3477V20.5296H26.3716V19.3504H23.3477ZM32.191 22.3411V17.7079L30.0762 19.9871L32.191 22.3411ZM41.5979 7.79195C42.0431 7.3308 42.7405 7.11815 43.6898 7.11815H45.0233V8.35616H43.7177C43.2152 8.35616 42.9312 8.4311 42.6579 8.69852C42.4229 8.94174 42.2618 9.40163 42.2618 10.0072C42.2618 10.6262 42.3846 11.0725 42.6405 11.3641C42.8526 11.5927 43.2381 11.662 43.6007 11.662H44.2195L46.1608 7.11834H48.2248L50.5569 12.5833V7.11841H52.6543L55.0757 11.1423V7.11841H56.4867V12.896H54.5346L51.9237 8.55955V12.896H49.1182L48.5822 11.6073H45.7207L45.2006 12.896H43.5886C42.9191 12.896 42.0714 12.7476 41.5914 12.257C41.1072 11.7664 40.8555 11.1019 40.8555 10.0513C40.8552 9.1943 41.0056 8.41098 41.5979 7.79195ZM40.1701 7.11815H38.7646V12.896H40.1701V7.11815ZM32.4277 7.11815H35.596C36.2998 7.11815 36.8187 7.13688 37.264 7.3949C37.6998 7.65298 37.9611 8.02978 37.9611 8.67413C37.9611 9.59542 37.3478 10.0713 36.9906 10.2143C37.2918 10.3293 37.5494 10.5325 37.6721 10.7008C37.8666 10.9882 37.9001 11.2449 37.9001 11.7608V12.8959H36.5108L36.5055 12.1673C36.5055 12.1322 36.5059 12.0956 36.5062 12.0578L36.5062 12.0573C36.5093 11.7205 36.5133 11.2914 36.2881 11.0418C36.0869 10.8386 35.78 10.7944 35.284 10.7944H33.8053V12.896H32.4278L32.4277 7.11815ZM31.4767 7.1179H26.875V12.8957H31.4767V11.7008H28.2527V10.5469H31.3993V9.36254H28.2527V8.32108H31.4767V7.1179Z" fill="#2557D6"/>
</svg>
