<svg width="26" height="26" viewBox="0 0 26 26" fill="none" xmlns="http://www.w3.org/2000/svg">
<path fill-rule="evenodd" clip-rule="evenodd" d="M9.33695 22.846V24.7343C9.33695 25.0715 9.07679 25.375 8.71907 25.375H5.69474C5.36954 25.375 5.07686 25.0715 5.07686 24.7343V22.846C4.19883 22.8123 3.4834 22.0368 3.4834 21.1264V2.34469C3.4834 1.40055 4.23135 0.625 5.1419 0.625H20.7514C21.6619 0.625 22.4099 1.40055 22.4099 2.34469V4.99487H25.3201V10.8184H22.4099V12.27H23.8611V13.7259H22.4099V21.1264C22.4099 22.0368 21.6944 22.8123 20.8164 22.846V24.7343C20.8164 25.0715 20.5237 25.375 20.1985 25.375H17.1742C16.849 25.375 16.5563 25.0715 16.5563 24.7343V22.846H9.33695ZM11.2944 18.095H16.0591C16.3569 18.095 16.5885 18.4134 16.5885 18.8229C16.5885 19.2324 16.3569 19.5509 16.0591 19.5509H11.2944C10.9966 19.5509 10.765 19.2324 10.765 18.8229C10.765 18.4134 10.9966 18.095 11.2944 18.095ZM16.0591 16.635H11.2944C10.9966 16.635 10.765 16.988 10.765 17.3409C10.765 17.738 10.9966 18.0909 11.2944 18.0909H16.0591C16.3569 18.0909 16.5885 17.738 16.5885 17.3409C16.5885 16.988 16.3569 16.635 16.0591 16.635ZM8.23303 2.08008C8.01079 2.08008 7.85205 2.37125 7.85205 2.7789C7.85205 3.18655 8.01079 3.53596 8.23303 3.53596H17.6305C17.8527 3.53596 18.0432 3.18655 18.0432 2.7789C18.0432 2.37125 17.8527 2.08008 17.6305 2.08008H8.23303ZM4.94122 5.5975C4.94122 5.24868 5.23123 4.995 5.55346 4.995H20.3115C20.6659 4.995 20.9559 5.24868 20.9559 5.5975V13.1278C20.9559 13.4449 20.6659 13.7303 20.3115 13.7303H5.55346C5.23123 13.7303 4.94122 13.4449 4.94122 13.1278V5.5975ZM20.2246 2.0802C19.817 2.0802 19.4967 2.40049 19.4967 2.80814C19.4967 3.21579 19.817 3.53608 20.2246 3.53608C20.6323 3.53608 20.9526 3.21579 20.9526 2.80814C20.9526 2.40049 20.6323 2.0802 20.2246 2.0802ZM18.0436 18.1089C18.0436 17.2821 18.6907 16.635 19.5175 16.635C20.3083 16.635 20.9554 17.2821 20.9554 18.1089C20.9554 18.8997 20.3083 19.5468 19.5175 19.5468C18.6907 19.5468 18.0436 18.8997 18.0436 18.1089ZM5.65489 2.0802C6.05454 2.0802 6.39711 2.40049 6.39711 2.80814C6.39711 3.21579 6.05454 3.53608 5.65489 3.53608C5.28378 3.53608 4.94122 3.21579 4.94122 2.80814C4.94122 2.40049 5.28378 2.0802 5.65489 2.0802ZM7.85299 18.1089C7.85299 17.2821 7.20593 16.635 6.41508 16.635C5.58828 16.635 4.94122 17.2821 4.94122 18.1089C4.94122 18.8997 5.58828 19.5468 6.41508 19.5468C7.20593 19.5468 7.85299 18.8997 7.85299 18.1089ZM0.569336 4.99475H3.4811V10.8183H0.569336V4.99475ZM2.02522 10.8197H0.569336V13.7315H2.02522V10.8197ZM2.02692 12.27H3.4828V13.7259H2.02692V12.27ZM25.3201 10.8197H23.8642V13.7315H25.3201V10.8197Z" fill="#666666"/>
</svg>
