<svg width="96" height="30" viewBox="0 0 96 30" fill="none" xmlns="http://www.w3.org/2000/svg">
<rect x="1" y="1" width="94" height="28" rx="2" stroke="#CACACA"/>
<path d="M24.8566 24.9999C30.3478 25.0265 35.3603 20.5422 35.3603 15.0868C35.3603 9.12154 30.3478 4.99829 24.8566 5H20.131C14.574 4.99829 10 9.12252 10 15.0868C10 20.5434 14.574 25.0265 20.131 24.9999H24.8566Z" fill="#006095"/>
<path fill-rule="evenodd" clip-rule="evenodd" d="M10.959 14.9824C10.9602 9.92597 15.0749 5.82861 20.1526 5.8269C25.2321 5.82861 29.3475 9.92597 29.3482 14.9824C29.3475 20.0384 25.2321 24.135 20.1526 24.1365C15.0749 24.135 10.9602 20.0384 10.959 14.9824ZM22.2383 20.3989V9.56656C24.4255 10.4018 25.9783 12.5099 25.9819 14.9824C25.9783 17.4554 24.4255 19.5622 22.2383 20.3989ZM14.325 14.9824C14.3299 12.5113 15.8802 10.4045 18.0662 9.5668V20.3967C15.8802 19.5598 14.3299 17.4542 14.325 14.9824Z" fill="white"/>
<path fill-rule="evenodd" clip-rule="evenodd" d="M74.8941 14.7538H74.6943V15.0274C75.0855 15.0166 75.4658 15.0064 75.8459 15.0064C76.0389 15.0064 76.2292 15.0118 76.4167 15.0171L76.4168 15.0171C76.5987 15.0223 76.7779 15.0274 76.9542 15.0274V14.7538H76.7758C76.4797 14.7538 76.2475 14.7538 76.2475 14.4059V7.13828C76.2475 7.054 76.2262 6.99023 76.1619 6.99023C76.1386 6.99023 76.0851 7.02018 76.0113 7.06145C75.9865 7.07534 75.9593 7.09052 75.9303 7.10628C75.7085 7.23307 75.2646 7.4224 74.8423 7.55896V7.72728L74.8827 7.73885C75.2544 7.84505 75.4022 7.88729 75.4022 8.54812V14.4059C75.4022 14.7538 75.1907 14.7538 74.8941 14.7538ZM74.313 9.58853H74.0495C73.8483 8.35874 72.9713 7.86379 71.7886 7.86379C70.573 7.86379 68.8083 8.67339 68.8083 11.1977C68.8083 13.3236 70.3308 14.8483 71.9572 14.8483C73.0027 14.8483 73.8698 14.1332 74.0814 13.0282L74.3238 13.0913L74.0814 14.6269C73.6375 14.9013 72.4435 15.1849 71.7457 15.1849C69.2743 15.1849 67.711 13.5965 67.711 11.2297C67.711 9.07331 69.6438 7.52666 71.7145 7.52666C72.5699 7.52666 73.3943 7.80101 74.2075 8.08513L74.313 9.58853ZM46.8128 8.60025C46.5375 8.60025 46.2951 8.3479 46.2951 8.07428C46.2951 7.81093 46.549 7.56834 46.8128 7.56834C47.0867 7.56834 47.3303 7.79017 47.3303 8.07428C47.3303 8.35864 47.0974 8.60025 46.8128 8.60025ZM38.9827 8.85211C38.9827 7.96917 38.5506 7.96444 38.1067 7.95958H38.1067H38.1067H38.1067H38.1067H38.1067H38.1067H38.1067H38.1067H38.1067H38.1067H38.1067H38.1067H38.1067H38.1067H38.1067H38.1067H38.1067H38.1067H38.1067H38.1067H38.1067H38.1067H38.1067H38.1067H38.1067H38.1067H38.1067H38.1067H38.1067C38.0751 7.95924 38.0433 7.95889 38.0117 7.95822V7.68485C38.4235 7.70489 38.8457 7.70489 39.2585 7.70489C39.4489 7.70489 39.6687 7.70119 39.9194 7.69697C40.2525 7.69137 40.6402 7.68485 41.0865 7.68485C43.8222 7.68485 45.3116 9.50389 45.3116 11.3667C45.3116 12.4081 44.6994 15.027 40.9591 15.027C40.6849 15.027 40.4213 15.0216 40.1631 15.0163H40.1631H40.163H40.163H40.1629H40.1629H40.1629H40.1628H40.1628H40.1627H40.1627H40.1626H40.1626H40.1626H40.1625H40.1625H40.1624H40.1624H40.1623H40.1623H40.1623H40.1622H40.1622H40.1621H40.1621H40.162H40.162H40.1619H40.1619H40.1619L40.1618 15.0163C39.9135 15.0112 39.6703 15.0062 39.4273 15.0062C38.9522 15.0062 38.4868 15.0162 38.0117 15.027V14.7533L38.0369 14.7508C38.6532 14.6894 38.9526 14.6595 38.9827 13.9538V8.85211ZM40.0184 13.7859C40.0184 14.5957 40.6002 14.6903 41.1175 14.6903C43.3999 14.6903 44.1495 12.9758 44.1495 11.4084C44.1495 9.44205 42.8817 8.02219 40.8429 8.02219C40.5264 8.02219 40.3346 8.03858 40.1798 8.0518L40.1798 8.05181C40.1224 8.05671 40.0701 8.06118 40.0184 8.06421V13.7859ZM45.8829 14.7537H45.6824V15.0273C46.0728 15.0166 46.4533 15.0063 46.8339 15.0063C47.0261 15.0063 47.216 15.0117 47.4033 15.017H47.4033H47.4033H47.4033H47.4033H47.4033C47.5856 15.0222 47.7655 15.0273 47.9428 15.0273V14.7537H47.7636C47.4675 14.7537 47.2351 14.7537 47.2351 14.4058V10.3678C47.2351 10.2831 47.2133 10.2198 47.161 10.2198C47.108 10.2198 47.0449 10.231 46.9706 10.2731C46.9289 10.3046 46.3368 10.5034 45.8402 10.6515V10.82L45.8876 10.8453C46.2444 11.0352 46.3898 11.1125 46.3898 11.5559V14.4058C46.3898 14.7537 46.1783 14.7537 45.8829 14.7537ZM48.3339 10.9251C48.8293 11.1249 48.9461 11.2297 48.9461 11.6186V14.4058C48.9461 14.7537 48.7354 14.7537 48.4397 14.7537H48.249V15.0273C48.6289 15.0166 49.0099 15.0063 49.3898 15.0063C49.5813 15.0063 49.7702 15.0116 49.9578 15.0169L49.958 15.0169H49.958H49.958H49.958H49.958H49.958H49.958H49.958H49.958H49.958H49.958H49.9581H49.9581H49.9581H49.9581H49.9581H49.9581H49.9581H49.9581H49.9581H49.9581H49.9581H49.9581H49.9582H49.9582H49.9582C50.1431 15.0221 50.3267 15.0273 50.5101 15.0273V14.7537H50.3202C50.0243 14.7537 49.7905 14.7537 49.7905 14.4058V11.293C50.1404 11.0614 50.6792 10.7883 51.0171 10.7883C51.6202 10.7883 51.9883 11.0822 51.9883 11.6824V14.4058C51.9883 14.7537 51.778 14.7537 51.4816 14.7537H51.2916V15.0273C51.6717 15.0166 52.0523 15.0063 52.4331 15.0063C52.6237 15.0063 52.8119 15.0116 52.9989 15.0169H52.9989H52.999H52.999H52.999H52.999H52.999H52.9991H52.9991H52.9991H52.9991H52.9991H52.9992H52.9992H52.9992H52.9992H52.9992H52.9993H52.9993H52.9993H52.9993H52.9993H52.9994H52.9994H52.9994H52.9994L52.9995 15.0169C53.1846 15.0221 53.3686 15.0273 53.5528 15.0273V14.7537H53.3626C53.0664 14.7537 52.8343 14.7537 52.8343 14.4058V11.6927C52.8343 10.8721 52.5175 10.2198 51.6202 10.2198C50.9116 10.2198 50.3936 10.5782 49.7905 11.0089V10.3248C49.7905 10.2413 49.7595 10.2198 49.7281 10.2198C49.2449 10.4302 48.8295 10.5647 48.3994 10.704L48.3339 10.7252V10.9251ZM54.357 12.1243C54.3352 12.2191 54.3352 12.3764 54.357 12.7343C54.4191 13.7333 55.0654 14.5534 55.9093 14.5534C56.4913 14.5534 56.9462 14.2378 57.3361 13.8491L57.4838 13.9964C56.9977 14.6382 56.3953 15.1849 55.5299 15.1849C53.8494 15.1849 53.5117 13.5647 53.5117 12.8919C53.5117 10.83 54.9057 10.2198 55.6447 10.2198C56.5013 10.2198 57.4212 10.756 57.4306 11.871C57.4306 11.935 57.4306 11.9973 57.4212 12.0611L57.3253 12.1243H54.357ZM56.5212 11.5246C56.5212 11.6506 56.4905 11.7877 56.2265 11.7877H54.3877C54.5143 11.0294 54.9579 10.5571 55.602 10.5571C56.1941 10.5571 56.5212 10.9883 56.5212 11.5246ZM57.6738 14.7537H57.9591C58.2538 14.7537 58.4653 14.7537 58.4653 14.4058V11.4508C58.4653 11.1933 58.2216 11.0996 58.041 11.0302C57.993 11.0117 57.9495 10.995 57.9162 10.9774V10.82C58.3324 10.6439 58.6472 10.483 58.8639 10.3723L58.8639 10.3723C59.0487 10.2778 59.1622 10.2198 59.2066 10.2198C59.2687 10.2198 59.3001 10.2513 59.3001 10.3571V11.3035H59.3227C59.5857 10.8933 60.0303 10.2198 60.6744 10.2198C60.9387 10.2198 61.2763 10.3984 61.2763 10.7773C61.2763 11.0614 61.0761 11.3145 60.7804 11.3145C60.6208 11.3145 60.5387 11.2548 60.4542 11.1935C60.3646 11.1284 60.2723 11.0614 60.0823 11.0614C59.9025 11.0614 59.3111 11.3035 59.3111 11.935V14.4058C59.3111 14.7537 59.5219 14.7537 59.8181 14.7537H60.4094V15.0273L60.122 15.0219L60.1219 15.0219C59.6761 15.0134 59.308 15.0063 58.9311 15.0063C58.498 15.0063 58.0541 15.0166 57.6738 15.0273V14.7537ZM63.0727 14.8482C62.301 14.8482 61.8787 14.2588 61.7411 13.5647L61.5507 13.6177L61.6672 14.8275C62.0365 15.0376 62.5331 15.1851 62.9557 15.1851C64.2132 15.1851 64.7731 14.4481 64.7731 13.754C64.7731 12.868 64.0674 12.5667 63.4133 12.2874C62.8485 12.0462 62.3221 11.8214 62.3221 11.2507C62.3221 10.7985 62.723 10.5567 63.1461 10.5567C63.8226 10.5567 64.1921 10.9353 64.2976 11.5974H64.5408L64.4662 10.5254C64.0544 10.3148 63.6003 10.2198 63.2626 10.2198C62.101 10.2198 61.625 10.9771 61.625 11.5666C61.625 12.4786 62.2931 12.7834 62.9095 13.0646C63.4374 13.3054 63.9273 13.529 63.9273 14.1017C63.9273 14.4696 63.695 14.8482 63.0727 14.8482ZM81.4774 14.448C81.4774 14.638 81.5932 14.6481 81.7726 14.6481C81.8348 14.6481 81.9044 14.6457 81.9754 14.6432L81.9755 14.6432L81.9755 14.6432C82.0495 14.6406 82.125 14.638 82.1954 14.638V14.8594C81.7404 14.9011 80.8745 15.122 80.6735 15.185L80.6203 15.1533V14.3016C79.9875 14.8169 79.5007 15.185 78.7498 15.185C78.1798 15.185 77.5882 14.8169 77.5882 13.9337V11.2404C77.5882 10.9667 77.5463 10.7036 76.9552 10.6514V10.4513C77.1667 10.4456 77.5211 10.4236 77.8181 10.4052C78.0557 10.3904 78.2564 10.378 78.3177 10.378C78.4348 10.378 78.4348 10.4513 78.4348 10.6829V13.396C78.4348 13.7122 78.4348 14.6165 79.3532 14.6165C79.7124 14.6165 80.1877 14.3432 80.6309 13.9757V11.1451C80.6309 10.9552 80.2162 10.8428 79.8561 10.7451C79.8181 10.7348 79.7808 10.7247 79.7446 10.7146V10.5253C80.3596 10.4842 80.8249 10.4345 81.1049 10.4047C81.2574 10.3884 81.355 10.378 81.392 10.378C81.4774 10.378 81.4774 10.4513 81.4774 10.5676V14.448ZM85.1538 10.2198C84.5723 10.2198 84.0015 10.6198 83.5795 10.9774V7.13828C83.5795 7.054 83.5586 6.99023 83.4953 6.99023C83.4711 6.99023 83.4192 7.01925 83.3472 7.05952V7.05952L83.3472 7.05954L83.3465 7.05993C83.3209 7.07424 83.2928 7.08995 83.2625 7.10628C83.0402 7.23307 82.5975 7.4224 82.174 7.55896V7.72728L82.2148 7.73896C82.586 7.84508 82.7344 7.8875 82.7344 8.54812V13.0708C82.7344 13.7123 82.6805 14.3226 82.587 14.9431L82.808 15.0584L83.1246 14.817C83.1658 14.8343 83.2102 14.8547 83.2584 14.8769C83.5315 15.0025 83.9288 15.1852 84.5926 15.1852C86.1044 15.1852 87.118 13.8069 87.118 12.429C87.118 11.283 86.3795 10.2198 85.1538 10.2198ZM83.5791 13.838C83.5791 14.2377 83.9592 14.9117 84.6671 14.9117C85.7978 14.9117 86.2728 13.8067 86.2728 12.8701C86.2728 11.7344 85.4074 10.7882 84.5829 10.7882C84.1911 10.7882 83.8642 11.0408 83.5791 11.2829V13.838ZM38.081 21.1428H38V21.3153C38.1056 21.3153 38.2367 21.3103 38.3754 21.305L38.3757 21.305L38.3757 21.305H38.3758H38.3758H38.3758C38.5315 21.2991 38.6965 21.2928 38.8456 21.2928C38.9901 21.2928 39.1497 21.2986 39.3079 21.3042H39.3079H39.3079H39.3079H39.308H39.308H39.3081L39.3081 21.3042C39.4632 21.3098 39.6169 21.3153 39.7534 21.3153V21.1428H39.6727C39.4666 21.1428 39.2477 21.115 39.2477 20.8169V17.8187C39.2477 17.5201 39.4666 17.4918 39.6727 17.4918H39.7534V17.3201C39.6204 17.3201 39.4694 17.3255 39.316 17.331C39.1579 17.3367 38.9974 17.3425 38.8517 17.3425C38.7024 17.3425 38.5355 17.3363 38.3783 17.3303L38.3783 17.3303H38.3782H38.3782H38.3782L38.3781 17.3303L38.3778 17.3303C38.2379 17.325 38.1056 17.3201 38 17.3201V17.4918H38.081C38.2876 17.4918 38.506 17.5201 38.506 17.8187V20.8169C38.506 21.115 38.2876 21.1428 38.081 21.1428ZM43.703 20.1871L43.7145 20.1759V18.03C43.7145 17.5605 43.3864 17.4918 43.2142 17.4918H43.0876V17.3201C43.2228 17.3201 43.3566 17.3257 43.4903 17.3314C43.6239 17.3371 43.7575 17.3428 43.8924 17.3428C44.0102 17.3428 44.1283 17.3371 44.2463 17.3314C44.3642 17.3257 44.4821 17.3201 44.5996 17.3201V17.4918H44.5139C44.2717 17.4918 44.0016 17.5377 44.0016 18.2186V20.8233C44.0016 21.0234 44.0075 21.2234 44.0357 21.4008H43.8173L40.8571 18.1153V20.4737C40.8571 20.9716 40.954 21.1428 41.3972 21.1428H41.4946V21.3153C41.3713 21.3153 41.2479 21.3097 41.1245 21.3041C41.0009 21.2985 40.8772 21.2928 40.7533 21.2928C40.6245 21.2928 40.494 21.2984 40.3633 21.304C40.2324 21.3097 40.1014 21.3153 39.9718 21.3153V21.1428H40.0523C40.4488 21.1428 40.5693 20.8743 40.5693 20.417V18.0063C40.5693 17.6863 40.3043 17.4918 40.0467 17.4918H39.9718V17.3201C40.0809 17.3201 40.1915 17.3257 40.3022 17.3314C40.4127 17.3371 40.5232 17.3428 40.6321 17.3428C40.7185 17.3428 40.8036 17.3371 40.8885 17.3314C40.9734 17.3257 41.0581 17.3201 41.1442 17.3201L43.703 20.1871ZM44.9292 18.1118C45.013 17.7067 45.0338 17.6061 45.4606 17.6061H46.4035V20.6629C46.4035 21.1146 46.2436 21.1427 45.9263 21.1427H45.8171V21.3152C45.9173 21.3152 46.0531 21.3107 46.2033 21.3058L46.2034 21.3058L46.2034 21.3058C46.3897 21.2996 46.5983 21.2927 46.7893 21.2927C46.9568 21.2927 47.1513 21.2993 47.3302 21.3053L47.3303 21.3053C47.4823 21.3105 47.6229 21.3152 47.7258 21.3152V21.1427H47.6167C47.3413 21.1427 47.1399 21.0924 47.1399 20.651V17.6061H48.0826C48.4674 17.6061 48.4963 17.9444 48.5081 18.156L48.6808 18.0924C48.6808 17.9383 48.6808 17.7837 48.6914 17.629C48.7062 17.4973 48.7253 17.3661 48.7444 17.2346L48.7444 17.2345L48.7545 17.1653L48.6173 17.1424C48.6053 17.3144 48.462 17.32 48.3064 17.32H45.3411L45.3255 17.32C45.1756 17.3202 45.0399 17.3204 44.9951 17.1541H44.8572C44.8572 17.32 44.8462 17.4795 44.8228 17.64C44.8115 17.7481 44.7952 17.8536 44.7791 17.9581L44.7791 17.9581L44.7791 17.9581L44.7791 17.9582L44.7791 17.9582L44.7791 17.9582L44.7791 17.9582L44.7791 17.9582L44.7791 17.9582L44.779 17.9582L44.779 17.9582L44.779 17.9582L44.779 17.9583L44.779 17.9583C44.7704 18.0145 44.7617 18.0704 44.7539 18.1264H44.9261L44.9292 18.1118ZM48.9382 21.1428H49.019C49.2258 21.1428 49.4444 21.115 49.4444 20.8169V17.8187C49.4444 17.5201 49.2258 17.4918 49.019 17.4918H48.9382V17.3201C49.099 17.3201 49.3123 17.3248 49.5427 17.3299L49.5431 17.3299L49.5437 17.33L49.5438 17.33H49.5438L49.5439 17.33C49.8148 17.336 50.1091 17.3425 50.3693 17.3425C50.6239 17.3425 50.91 17.3363 51.1809 17.3304H51.181H51.181C51.4245 17.3251 51.6556 17.3201 51.8405 17.3201C51.8307 17.5658 51.8363 17.9442 51.853 18.1959L51.6798 18.2418C51.6521 17.87 51.5834 17.5724 50.9792 17.5724H50.1811V19.0714H50.8642C51.2089 19.0714 51.2842 18.8775 51.3184 18.5677H51.4904C51.4791 18.7915 51.4732 19.0145 51.4732 19.2373C51.4732 19.4555 51.4791 19.6726 51.4904 19.8901L51.3184 19.924L51.3172 19.9119C51.2838 19.5758 51.2621 19.3577 50.8696 19.3577H50.1811V20.6911C50.1811 21.0632 50.513 21.0632 50.8811 21.0632C51.5713 21.0632 51.8756 21.017 52.0483 20.3655L52.2091 20.4048C52.134 20.709 52.0653 21.0114 52.0142 21.3153C51.8455 21.3153 51.6155 21.3106 51.3661 21.3055L51.366 21.3055H51.366H51.366H51.3659H51.3659H51.3658L51.3657 21.3055C51.0704 21.2994 50.748 21.2928 50.4679 21.2928C50.1794 21.2928 49.8395 21.2998 49.5382 21.306L49.5381 21.306L49.538 21.306L49.5379 21.306C49.2983 21.3109 49.0833 21.3153 48.9382 21.3153V21.1428ZM52.5764 17.4918C52.755 17.4918 52.9849 17.5089 52.9849 17.9264V20.8345C52.9849 21.0466 52.7899 21.1426 52.5764 21.1426H52.4728V21.3153C52.6179 21.3153 52.7585 21.3096 52.8978 21.3039H52.8978H52.8979H52.8979H52.8979H52.8979H52.8979H52.8979C53.0345 21.2983 53.1698 21.2928 53.3066 21.2928C53.4706 21.2928 53.6356 21.2984 53.8006 21.3041H53.8006H53.8006H53.8007H53.8007H53.8007H53.8007H53.8007H53.8007H53.8007H53.8007H53.8007H53.8007C53.9659 21.3097 54.131 21.3153 54.2952 21.3153V21.1426H54.1914C53.9274 21.1426 53.721 21.1267 53.721 20.6855V19.4601H54.0997C54.4729 20.1192 54.8532 20.7373 55.2958 21.3153C55.3845 21.3153 55.4748 21.3097 55.5653 21.3041C55.656 21.2985 55.7468 21.2928 55.8359 21.2928C55.9306 21.2928 56.0239 21.2984 56.1172 21.3041C56.2107 21.3097 56.3043 21.3153 56.3993 21.3153V21.1426C56.1171 21.1094 56.0028 21.0414 55.8416 20.7993L54.8588 19.3353C55.313 19.1569 55.6578 18.842 55.6578 18.3278C55.6578 17.5143 55.0132 17.3198 54.2893 17.3198C54.1418 17.3198 54.0008 17.3252 53.8556 17.3308L53.8555 17.3308C53.701 17.3367 53.5416 17.3428 53.364 17.3428C53.1605 17.3428 52.9552 17.3351 52.7827 17.3286C52.6578 17.3239 52.5501 17.3198 52.4728 17.3198V17.4918H52.5764ZM53.7207 19.2539H54.0014C54.5768 19.2539 54.8865 19.037 54.8865 18.3613C54.8865 17.8527 54.5591 17.5263 54.047 17.5263C53.9283 17.5263 53.8564 17.5346 53.797 17.5415L53.797 17.5415H53.797H53.797L53.7969 17.5415C53.77 17.5446 53.7457 17.5474 53.7207 17.549V19.2539ZM60.3125 20.1759L60.3022 20.1871L57.7439 17.3201C57.6572 17.3201 57.5719 17.3258 57.4868 17.3315L57.4868 17.3315C57.4022 17.3371 57.3178 17.3428 57.2326 17.3428C57.1233 17.3428 57.0123 17.3371 56.9014 17.3314C56.7907 17.3257 56.68 17.3201 56.5713 17.3201V17.4918H56.6461C56.9045 17.4918 57.169 17.6863 57.169 18.0063V20.417C57.169 20.8743 57.0483 21.1428 56.651 21.1428H56.5713V21.3153C56.7003 21.3153 56.8308 21.3097 56.9615 21.3041C57.0925 21.2985 57.2236 21.2928 57.3535 21.2928C57.477 21.2928 57.6005 21.2984 57.7241 21.3041C57.8476 21.3097 57.9711 21.3153 58.0946 21.3153V21.1428H57.9969C57.5543 21.1428 57.4568 20.9716 57.4568 20.4737V18.1153L60.4173 21.4008H60.6352C60.6067 21.2234 60.6013 21.0234 60.6013 20.8233V18.2186C60.6013 17.5377 60.8717 17.4918 61.1129 17.4918H61.1998V17.3201C61.0808 17.3201 60.9626 17.3258 60.8446 17.3315C60.7269 17.3371 60.6095 17.3428 60.4916 17.3428C60.3561 17.3428 60.2224 17.3371 60.0888 17.3314C59.9554 17.3257 59.822 17.3201 59.687 17.3201V17.4918H59.8132C59.9854 17.4918 60.3125 17.5605 60.3125 18.03V20.1759ZM62.1241 20.497C62.1047 20.5614 62.0842 20.6208 62.0654 20.6753C62.0274 20.7852 61.9965 20.8748 61.9965 20.9431C61.9965 21.1151 62.2382 21.1429 62.4274 21.1429H62.4917V21.3154C62.2613 21.3029 62.0264 21.2932 61.7948 21.2932C61.5882 21.2932 61.3826 21.3029 61.1747 21.3154V21.1429H61.2096C61.4336 21.1429 61.6238 21.0115 61.7087 20.7706L62.6296 18.1446L62.651 18.0834L62.651 18.0834C62.7223 17.8799 62.8112 17.6267 62.8425 17.434C63.0256 17.3719 63.256 17.2576 63.3652 17.1887L63.3763 17.1846C63.3879 17.1802 63.3971 17.1767 63.4111 17.1767C63.4282 17.1767 63.4388 17.1767 63.4518 17.1943C63.4587 17.2127 63.4655 17.232 63.4723 17.2515C63.4824 17.2805 63.4927 17.3099 63.5038 17.3372L64.5614 20.3309L64.598 20.4384L64.5981 20.4384L64.5981 20.4385C64.6546 20.605 64.7118 20.7732 64.7729 20.915C64.8426 21.0752 64.9633 21.1429 65.1532 21.1429H65.1876V21.3154C64.9289 21.3029 64.6698 21.2932 64.3945 21.2932C64.1131 21.2932 63.8248 21.3029 63.5315 21.3154V21.1429H63.5953C63.7269 21.1429 63.9519 21.1207 63.9519 20.9773C63.9519 20.9033 63.9001 20.7489 63.8358 20.5651L63.6123 19.9014H62.3074L62.1241 20.497ZM62.9517 17.9611H62.9634L63.4912 19.581H62.417L62.9517 17.9611ZM65.4401 17.6063C65.0128 17.6063 64.9919 17.7074 64.9076 18.1148L64.9052 18.1266H64.7324C64.7403 18.0706 64.7491 18.0145 64.7578 17.9582L64.7578 17.9581L64.7578 17.958L64.7578 17.958L64.7579 17.958L64.7579 17.9579L64.7579 17.9579L64.7579 17.9579L64.7579 17.9579C64.7741 17.8535 64.7905 17.7482 64.8021 17.6403C64.8249 17.4797 64.8357 17.3202 64.8357 17.1543H64.9744C65.0185 17.3206 65.1548 17.3204 65.3035 17.3202L65.3189 17.3202H68.2857C68.4403 17.3202 68.5838 17.3146 68.5956 17.1426L68.7332 17.1656L68.7233 17.2348L68.7233 17.2349C68.7044 17.3664 68.6855 17.4975 68.6709 17.6293C68.6581 17.7839 68.6581 17.9385 68.6581 18.0927L68.4861 18.1562C68.4756 17.9446 68.4466 17.6063 68.0614 17.6063H67.1184V20.6512C67.1184 21.0927 67.3201 21.143 67.5954 21.143H67.7049V21.3155C67.6019 21.3155 67.4613 21.3107 67.3094 21.3056H67.3093H67.3093H67.3093C67.1304 21.2996 66.9357 21.293 66.7678 21.293C66.5773 21.293 66.3686 21.2999 66.1823 21.306H66.1822L66.1822 21.306C66.0319 21.311 65.8961 21.3155 65.7961 21.3155V21.143H65.9053C66.2221 21.143 66.3828 21.1149 66.3828 20.6632V17.6063H65.4401ZM69.0258 21.1428H68.9453V21.3153C69.0513 21.3153 69.1826 21.3103 69.3213 21.305L69.3214 21.305C69.4769 21.2991 69.6418 21.2928 69.7909 21.2928C69.9358 21.2928 70.0955 21.2986 70.2536 21.3042H70.2536H70.2537H70.2537H70.2537H70.2538H70.2538C70.4089 21.3098 70.5625 21.3153 70.6992 21.3153V21.1428H70.6188C70.4114 21.1428 70.1925 21.115 70.1925 20.8169V17.8187C70.1925 17.5201 70.4114 17.4918 70.6188 17.4918H70.6992V17.3201C70.5661 17.3201 70.4149 17.3255 70.2614 17.331L70.2613 17.331C70.1029 17.3367 69.9419 17.3425 69.7955 17.3425C69.6471 17.3425 69.481 17.3363 69.3243 17.3304L69.3243 17.3304L69.3242 17.3304C69.1841 17.3251 69.0514 17.3201 68.9453 17.3201V17.4918H69.0258C69.2334 17.4918 69.4508 17.5201 69.4508 17.8187V20.8169C69.4508 21.115 69.2334 21.1428 69.0258 21.1428ZM72.9919 17.2348C74.2175 17.2348 75.1941 17.9906 75.1941 19.2097C75.1941 20.5262 74.2455 21.4012 73.0215 21.4012C71.8018 21.4012 70.8711 20.5772 70.8711 19.3467C70.8711 18.1565 71.7964 17.2348 72.9919 17.2348ZM74.3881 19.3354C74.3881 20.1697 74.194 21.149 73.0786 21.149C72.1471 21.149 71.6758 20.1697 71.6758 19.1451C71.6758 18.379 71.9744 17.4858 72.9807 17.4858C73.9354 17.4858 74.3881 18.4984 74.3881 19.3354ZM79.0681 20.1871L79.0798 20.1759V18.03C79.0798 17.5605 78.7513 17.4918 78.5788 17.4918H78.4541V17.3201C78.5887 17.3201 78.7222 17.3257 78.8557 17.3314C78.9892 17.3371 79.1227 17.3428 79.2573 17.3428C79.3757 17.3428 79.4939 17.3371 79.612 17.3314C79.7299 17.3257 79.8477 17.3201 79.9656 17.3201V17.4918H79.8788C79.6378 17.4918 79.3672 17.5377 79.3672 18.2186V20.8233C79.3672 21.0234 79.3726 21.2234 79.4018 21.4008H79.1836L76.2225 18.1153V20.4737C76.2225 20.9716 76.3204 21.1428 76.7625 21.1428H76.8607V21.3153C76.737 21.3153 76.6135 21.3097 76.4901 21.3041C76.3666 21.2984 76.2431 21.2928 76.1194 21.2928C75.9901 21.2928 75.8592 21.2984 75.7282 21.3041C75.5972 21.3097 75.4662 21.3153 75.3367 21.3153V21.1428H75.4179C75.8152 21.1428 75.9347 20.8743 75.9347 20.417V18.0063C75.9347 17.6863 75.6716 17.4918 75.4118 17.4918H75.3367V17.3201C75.4462 17.3201 75.5571 17.3258 75.6679 17.3314C75.7785 17.3371 75.889 17.3428 75.998 17.3428C76.084 17.3428 76.1686 17.3371 76.2532 17.3314C76.3381 17.3258 76.423 17.3201 76.5096 17.3201L79.0681 20.1871ZM80.8294 20.6831C80.8487 20.6265 80.8699 20.5644 80.8895 20.497L81.074 19.9014H82.3792L82.6025 20.5651C82.6665 20.7489 82.7188 20.9033 82.7188 20.9773C82.7188 21.1207 82.493 21.1429 82.3618 21.1429H82.2982V21.3154C82.5914 21.3029 82.8795 21.2932 83.1604 21.2932C83.4367 21.2932 83.6956 21.3029 83.9547 21.3154V21.1429H83.9196C83.7304 21.1429 83.6092 21.0752 83.5403 20.915C83.4776 20.772 83.4197 20.6022 83.3624 20.4343L83.3624 20.4342L83.3271 20.3309L82.27 17.3372C82.2644 17.3226 82.2588 17.3073 82.2531 17.2918C82.25 17.2832 82.2469 17.2745 82.2438 17.2659L82.2437 17.2658C82.235 17.2415 82.2262 17.2172 82.2175 17.1943C82.2059 17.1767 82.1949 17.1767 82.1777 17.1767C82.1633 17.1767 82.1529 17.1808 82.1403 17.1857L82.1323 17.1887C82.0222 17.2576 81.7925 17.3719 81.6082 17.434C81.5772 17.6313 81.4854 17.8922 81.4129 18.098L81.3965 18.1446L80.4753 20.7706C80.3904 21.0115 80.2 21.1429 79.975 21.1429H79.9424V21.3154C80.1485 21.3029 80.3546 21.2932 80.5622 21.2932C80.7921 21.2932 81.0282 21.3029 81.2583 21.3154V21.1429H81.194C81.0056 21.1429 80.7634 21.1151 80.7634 20.9431C80.7634 20.8764 80.7931 20.7895 80.8294 20.6831ZM81.7294 17.9611H81.7179L81.1824 19.581H82.2584L81.7294 17.9611ZM85.7463 21.0752C85.5622 21.0517 85.4025 20.9835 85.4025 20.7542V17.8008C85.4025 17.4982 85.574 17.4918 85.7919 17.4918H85.9364V17.3201C85.7898 17.3201 85.6448 17.3257 85.4997 17.3314C85.3545 17.3371 85.2091 17.3428 85.0619 17.3428C84.9098 17.3428 84.7588 17.3371 84.6079 17.3314C84.4571 17.3257 84.3063 17.3201 84.1543 17.3201V17.4918H84.2336C84.4414 17.4918 84.6661 17.5201 84.6661 17.8184V20.7598C84.6661 21.115 84.4414 21.1428 84.2336 21.1428H84.1543V21.3153C84.4072 21.3153 84.6599 21.3097 84.9127 21.3042C85.1657 21.2986 85.4187 21.2931 85.6722 21.2931C85.9244 21.2931 86.1775 21.2986 86.4305 21.3042C86.6835 21.3097 86.9366 21.3153 87.1888 21.3153C87.2164 21.1861 87.2457 21.0576 87.275 20.9292C87.3195 20.7338 87.364 20.5388 87.4021 20.342H87.2354C87.2004 20.4681 87.1488 20.6281 87.0571 20.7542C86.9538 20.8976 86.7469 21.0346 86.506 21.0634C86.2407 21.0925 85.9821 21.0925 85.7463 21.0752Z" fill="#262626"/>
</svg>
