<svg width="79" height="27" viewBox="0 0 79 27" fill="none" xmlns="http://www.w3.org/2000/svg">
<path d="M30.863 9.96524V11.0212H25.858V3.12324H30.786V4.17924H27.068V6.42324H30.456V7.47924H27.068V9.96524H30.863ZM37.7158 11.0212L37.0008 9.06324H33.5908L32.8648 11.0212H31.6438L34.6688 3.12324H35.9998L39.0028 11.0212H37.7158ZM35.3068 4.44324L33.9538 8.08424H36.6378L35.3068 4.44324ZM45.6516 8.71124C45.6516 10.0862 44.5516 11.1312 42.6376 11.1312C40.7346 11.1312 39.5796 10.0862 39.4806 8.51324H40.7126C40.7676 9.51424 41.4056 10.1632 42.6156 10.1632C43.6166 10.1632 44.3646 9.69024 44.3646 8.87624C44.3646 8.21624 43.9356 7.88624 43.0226 7.68824L41.8786 7.46824C40.7676 7.24824 39.7556 6.68724 39.7556 5.34524C39.7556 4.01424 40.9216 3.01324 42.5606 3.01324C44.1996 3.01324 45.4426 4.01424 45.5416 5.58724H44.3096C44.2436 4.64124 43.5616 3.98124 42.5716 3.98124C41.5486 3.98124 40.9876 4.58624 40.9876 5.26824C40.9876 6.01624 41.6366 6.28024 42.3736 6.43424L43.5396 6.66524C44.8926 6.94024 45.6516 7.53424 45.6516 8.71124ZM49.8794 8.06224V11.0212H48.6584V8.06224L45.8204 3.12324H47.1404L49.3074 6.92924L51.4964 3.12324H52.7284L49.8794 8.06224ZM60.9734 9.96524V11.0212H55.9684V3.12324H60.8964V4.17924H57.1784V6.42324H60.5664V7.47924H57.1784V9.96524H60.9734ZM66.0002 11.0212L63.5032 4.98224V11.0212H62.3922V3.12324H63.8772L66.5282 9.53624L69.1682 3.12324H70.6642V11.0212H69.5422V4.97124L67.0342 11.0212H66.0002ZM73.5817 11.0212H72.3717V3.12324H73.5817V11.0212ZM29.411 24.1862C27.123 24.1862 25.396 22.3932 25.396 20.0612C25.396 17.7292 27.123 15.9582 29.411 15.9582C31.699 15.9582 33.426 17.7292 33.426 20.0612C33.426 22.3932 31.699 24.1862 29.411 24.1862ZM29.411 23.0972C31.083 23.0972 32.172 21.7552 32.172 20.0612C32.172 18.3672 31.083 17.0472 29.411 17.0472C27.739 17.0472 26.65 18.3672 26.65 20.0612C26.65 21.7552 27.739 23.0972 29.411 23.0972ZM37.4163 21.2712H35.8873V24.0212H34.6773V16.1232H37.4163C39.1873 16.1232 40.3313 17.0252 40.3313 18.6752C40.3313 20.3362 39.1873 21.2712 37.4163 21.2712ZM37.4053 17.1462H35.8873V20.2482H37.4053C38.4723 20.2482 39.1213 19.6652 39.1213 18.6862C39.1213 17.7072 38.4723 17.1462 37.4053 17.1462ZM44.6229 24.0212H43.4129V17.2122H40.8389V16.1232H47.1969V17.2122H44.6229V24.0212ZM49.4762 24.0212H48.2662V16.1232H49.4762V24.0212ZM54.7411 24.1862C52.4531 24.1862 50.7261 22.3932 50.7261 20.0612C50.7261 17.7292 52.4531 15.9582 54.7411 15.9582C57.0291 15.9582 58.7561 17.7292 58.7561 20.0612C58.7561 22.3932 57.0291 24.1862 54.7411 24.1862ZM54.7411 23.0972C56.4131 23.0972 57.5021 21.7552 57.5021 20.0612C57.5021 18.3672 56.4131 17.0472 54.7411 17.0472C53.0691 17.0472 51.9801 18.3672 51.9801 20.0612C51.9801 21.7552 53.0691 23.0972 54.7411 23.0972ZM65.2874 24.0212L61.1294 17.8502V24.0212H60.0074V16.1232H61.3274L65.3864 22.1292V16.1232H66.5084V24.0212H65.2874Z" fill="#4D4D4D"/>
<path fill-rule="evenodd" clip-rule="evenodd" d="M3.16352 11.1902H5.58145C5.78678 11.1902 5.95298 11.3572 5.95298 11.563V13.9891C5.95298 14.1949 5.78678 14.3619 5.58145 14.3619H3.16352C2.95819 14.3619 2.79199 14.1949 2.79199 13.9891V11.563C2.79199 11.3569 2.95819 11.1902 3.16352 11.1902ZM3.53505 13.6163H5.20991V11.9358H3.53505V13.6163Z" fill="#4D4D4D"/>
<path fill-rule="evenodd" clip-rule="evenodd" d="M8.80219 11.1902H11.2201C11.4252 11.1902 11.5916 11.3572 11.5916 11.563V13.9891C11.5916 14.1949 11.4252 14.3619 11.2201 14.3619H8.80219C8.59686 14.3619 8.43066 14.1949 8.43066 13.9891V11.563C8.43066 11.3569 8.59686 11.1902 8.80219 11.1902ZM9.17373 13.6163H10.8486V11.9358H9.17373V13.6163Z" fill="#4D4D4D"/>
<path fill-rule="evenodd" clip-rule="evenodd" d="M14.268 11.1904H16.6859C16.891 11.1904 17.0575 11.3574 17.0575 11.5632V13.9893C17.0575 14.1951 16.891 14.3621 16.6859 14.3621H14.268C14.0629 14.3621 13.8965 14.1951 13.8965 13.9893V11.5632C13.8965 11.3572 14.0629 11.1904 14.268 11.1904ZM14.6395 13.6165H16.3144V11.936H14.6395V13.6165Z" fill="#4D4D4D"/>
<path fill-rule="evenodd" clip-rule="evenodd" d="M3.16352 16.7166H5.58145C5.78678 16.7166 5.95298 16.8836 5.95298 17.0893V19.5154C5.95298 19.7212 5.78678 19.8882 5.58145 19.8882H3.16352C2.95819 19.8882 2.79199 19.7212 2.79199 19.5154V17.0893C2.79199 16.8836 2.95819 16.7166 3.16352 16.7166ZM3.53505 19.1427H5.20991V17.4621H3.53505V19.1427Z" fill="#4D4D4D"/>
<path fill-rule="evenodd" clip-rule="evenodd" d="M8.80219 16.7166H11.2201C11.4252 16.7166 11.5916 16.8836 11.5916 17.0893V19.5154C11.5916 19.7212 11.4252 19.8882 11.2201 19.8882H8.80219C8.59686 19.8882 8.43066 19.7212 8.43066 19.5154V17.0893C8.43066 16.8836 8.59686 16.7166 8.80219 16.7166ZM9.17373 19.1427H10.8486V17.4621H9.17373V19.1427Z" fill="#4D4D4D"/>
<path fill-rule="evenodd" clip-rule="evenodd" d="M14.268 16.7166H16.6859C16.891 16.7166 17.0575 16.8836 17.0575 17.0893V19.5154C17.0575 19.7212 16.891 19.8882 16.6859 19.8882H14.268C14.0629 19.8882 13.8965 19.7212 13.8965 19.5154V17.0893C13.8965 16.8836 14.0629 16.7166 14.268 16.7166ZM14.6395 19.1427H16.3144V17.4621H14.6395V19.1427Z" fill="#4D4D4D"/>
<path fill-rule="evenodd" clip-rule="evenodd" d="M19.6285 3.9715H17.1746C17.1727 3.9715 17.171 3.97176 17.1693 3.97202L17.1655 3.97249V3.47594C17.1655 2.66375 16.5071 2.00317 15.6977 2.00317C14.8882 2.00317 14.2299 2.664 14.2299 3.47594V3.9715H11.4649V3.47594C11.4649 2.66375 10.8066 2.00317 9.99715 2.00317C9.18771 2.00317 8.52936 2.664 8.52936 3.47594V3.9715H5.76418V3.47594C5.76418 2.66375 5.10582 2.00317 4.29638 2.00317C3.48694 2.00317 2.82859 2.664 2.82859 3.47594V3.97175L2.82487 3.9715H0.371531C0.166198 3.9715 0 4.13826 0 4.34429V23.6662C0 23.8719 0.166198 24.0389 0.371531 24.0389H19.6285C19.8336 24.0389 20 23.8719 20 23.6662V4.34429C20 4.13826 19.8336 3.9715 19.6285 3.9715ZM14.9727 3.47597C14.9727 3.07484 15.2976 2.74878 15.6974 2.74878C16.0972 2.74878 16.4221 3.07484 16.4221 3.47597V5.53301C16.4221 5.93388 16.0972 6.2602 15.6974 6.2602C15.2976 6.2602 14.9727 5.93413 14.9727 5.53301V3.47597ZM10.7219 3.47594C10.7219 3.07482 10.3967 2.74875 9.99715 2.74875C9.59738 2.74875 9.27242 3.07482 9.27242 3.47594V4.30899C9.27279 4.31335 9.27337 4.31764 9.27394 4.32193C9.27491 4.32916 9.27589 4.3364 9.27589 4.34404C9.27589 4.35167 9.27491 4.35892 9.27394 4.36614V4.36615C9.27337 4.37044 9.27279 4.37472 9.27242 4.37908V5.53298C9.27242 5.9341 9.59738 6.26017 9.99715 6.26017C10.3969 6.26017 10.7219 5.93385 10.7219 5.53298V3.47594ZM3.57129 3.47597C3.57129 3.07484 3.89625 2.74878 4.29602 2.74878C4.69554 2.74878 5.02075 3.07484 5.02075 3.47597V5.53301C5.02075 5.93388 4.69579 6.2602 4.29602 6.2602C3.89625 6.2602 3.57129 5.93413 3.57129 5.53301V3.47597ZM0.743062 23.2934H19.2569V4.71707H17.1746C17.173 4.71707 17.1715 4.71683 17.17 4.71658C17.1686 4.71633 17.1671 4.71608 17.1655 4.71608V5.53323C17.1655 6.34541 16.5071 7.00599 15.6977 7.00599C14.8882 7.00599 14.2299 6.34541 14.2299 5.53323V4.71732H11.4649V5.53323C11.4649 6.34541 10.8063 7.00599 9.99715 7.00599C9.18796 7.00599 8.52936 6.34541 8.52936 5.53323V4.71732H5.76418V5.53323C5.76418 6.34541 5.10558 7.00599 4.29638 7.00599C3.48719 7.00599 2.82859 6.34541 2.82859 5.53323V4.71683L2.82487 4.71707H0.743062V23.2934Z" fill="#4D4D4D"/>
</svg>
