<svg width="20" height="20" viewBox="0 0 20 20" fill="none" xmlns="http://www.w3.org/2000/svg">
<g clip-path="url(#clip0_348_27032)">
<path d="M10 5.00065C10 5.44268 10.1756 5.8666 10.4882 6.17916C10.8007 6.49172 11.2246 6.66732 11.6667 6.66732C12.1087 6.66732 12.5326 6.49172 12.8452 6.17916C13.1577 5.8666 13.3333 5.44268 13.3333 5.00065C13.3333 4.55862 13.1577 4.1347 12.8452 3.82214C12.5326 3.50958 12.1087 3.33398 11.6667 3.33398C11.2246 3.33398 10.8007 3.50958 10.4882 3.82214C10.1756 4.1347 10 4.55862 10 5.00065Z" stroke="#333333" stroke-linecap="round" stroke-linejoin="round"/>
<path d="M3.33203 5H9.9987" stroke="#333333" stroke-linecap="round" stroke-linejoin="round"/>
<path d="M13.332 5H16.6654" stroke="#333333" stroke-linecap="round" stroke-linejoin="round"/>
<path d="M5 10.0007C5 10.4427 5.17559 10.8666 5.48816 11.1792C5.80072 11.4917 6.22464 11.6673 6.66667 11.6673C7.10869 11.6673 7.53262 11.4917 7.84518 11.1792C8.15774 10.8666 8.33333 10.4427 8.33333 10.0007C8.33333 9.55862 8.15774 9.1347 7.84518 8.82214C7.53262 8.50958 7.10869 8.33398 6.66667 8.33398C6.22464 8.33398 5.80072 8.50958 5.48816 8.82214C5.17559 9.1347 5 9.55862 5 10.0007Z" stroke="#333333" stroke-linecap="round" stroke-linejoin="round"/>
<path d="M3.33203 10H4.9987" stroke="#333333" stroke-linecap="round" stroke-linejoin="round"/>
<path d="M8.33203 10H16.6654" stroke="#333333" stroke-linecap="round" stroke-linejoin="round"/>
<path d="M12.5 15.0007C12.5 15.4427 12.6756 15.8666 12.9882 16.1792C13.3007 16.4917 13.7246 16.6673 14.1667 16.6673C14.6087 16.6673 15.0326 16.4917 15.3452 16.1792C15.6577 15.8666 15.8333 15.4427 15.8333 15.0007C15.8333 14.5586 15.6577 14.1347 15.3452 13.8221C15.0326 13.5096 14.6087 13.334 14.1667 13.334C13.7246 13.334 13.3007 13.5096 12.9882 13.8221C12.6756 14.1347 12.5 14.5586 12.5 15.0007Z" stroke="#333333" stroke-linecap="round" stroke-linejoin="round"/>
<path d="M3.33203 15H12.4987" stroke="#333333" stroke-linecap="round" stroke-linejoin="round"/>
<path d="M15.832 15H16.6654" stroke="#333333" stroke-linecap="round" stroke-linejoin="round"/>
</g>
<defs>
<clipPath id="clip0_348_27032">
<rect width="20" height="20" fill="white"/>
</clipPath>
</defs>
</svg>
