<svg width="31" height="26" viewBox="0 0 31 26" fill="none" xmlns="http://www.w3.org/2000/svg">
<path d="M24.2659 1.24363C24.5303 1.34215 24.7919 1.45215 25.0505 1.57395C25.3004 1.69173 25.543 1.81926 25.7786 1.95494C26.4053 4.9243 25.9307 8.9603 24.4703 13.0815L21.1013 11.4929L17.2734 19.7934C22.3659 20.1616 27.0743 21.4963 30.663 25.2511C30.7357 25.3271 24.3994 25.3682 17.5504 25.3743L16.6546 25.3748L16.4301 25.3749L15.3064 25.375C15.1566 25.375 15.0069 25.3749 14.8573 25.3749L13.9615 25.3743C7.11254 25.3682 0.776266 25.3271 0.848921 25.2511C2.29723 23.7358 3.92826 23.3555 5.69295 22.361V20.8596L2.82998 21.6354C2.68596 21.6744 2.53773 21.6941 2.38949 21.6941C1.62177 21.6941 0.946843 21.17 0.748049 20.4197C0.505456 19.5042 1.04477 18.5599 1.95011 18.3144L12.3272 15.5029L14.6397 11.4526C14.9425 10.9224 15.507 10.5928 16.113 10.5928C16.4101 10.5928 16.7037 10.6727 16.9619 10.8235C17.3551 11.0528 17.6365 11.4235 17.754 11.8671C17.8716 12.3108 17.8113 12.7741 17.5841 13.1717L14.9195 17.8384C14.8476 17.9643 14.7604 18.0776 14.6626 18.1791L14.8266 19.7597C15.1353 19.7461 15.445 19.738 15.7561 19.738C15.8534 19.738 15.9504 19.7403 16.0474 19.7416L20.0745 11.0088L16.6907 9.41313C18.8749 5.64696 21.6168 2.69044 24.2659 1.24363ZM13.58 18.7227L6.82578 20.5528V21.7687C8.97015 20.732 11.2864 20.0774 13.6958 19.8396L13.58 18.7227ZM27.0682 2.83967C30.5849 5.68345 31.869 10.6965 29.8838 15.002C29.8203 15.1397 29.7052 15.2463 29.5641 15.2982C29.5014 15.3212 29.4357 15.3326 29.3704 15.3326C29.2884 15.3326 29.2068 15.3147 29.131 15.2791L25.5014 13.5677C26.881 9.71022 27.4305 5.88903 27.0682 2.83967ZM20.8335 0.625C21.4896 0.625 22.1368 0.689755 22.7717 0.8174C20.2322 2.51134 17.6974 5.3893 15.6595 8.92695L12.0447 7.22253C11.9085 7.15831 11.8032 7.0421 11.7519 6.89934C11.7006 6.75661 11.7073 6.59914 11.7707 6.4613C13.4057 2.9159 16.9631 0.625 20.8335 0.625Z" fill="#666666"/>
</svg>
