<svg width="50" height="30" viewBox="0 0 50 30" fill="none" xmlns="http://www.w3.org/2000/svg">
<rect x="1" y="1" width="48" height="28" rx="2" stroke="#CACACA"/>
<path fill-rule="evenodd" clip-rule="evenodd" d="M36.751 23.891V21.9863H36.3271V23.0937C36.1709 22.8943 35.9501 22.7836 35.6355 22.7836C35.0333 22.7836 34.5868 23.2488 34.5868 23.891C34.5868 24.5332 35.0328 24.9984 35.6355 24.9984C35.9479 24.9984 36.1709 24.8877 36.3271 24.6882V24.9556H36.751V23.891ZM22.8969 22.8498H23.6779L23.6773 22.8524V23.207H22.8963V24.2251C22.8963 24.4464 23.0078 24.5796 23.2308 24.5796C23.3727 24.582 23.5123 24.5436 23.6326 24.4689L23.7667 24.8432C23.5893 24.9408 23.3906 24.994 23.1877 24.9982C22.6524 24.9982 22.4741 24.71 22.4741 24.2229V23.2241H22.0281V22.8498H22.4741V22.2081H22.8969V22.8498ZM16.718 23.6252V24.954H16.2505V23.7359C16.2505 23.3819 16.0722 23.1825 15.7598 23.1825C15.4474 23.1825 15.2244 23.3616 15.2244 23.7359V24.954H14.8005V23.7359C14.8005 23.3819 14.6222 23.1825 14.3098 23.1825C13.9975 23.1825 13.7745 23.3616 13.7745 23.7359V24.9524H13.3506V22.8263H13.7745V23.0937C13.9238 22.8891 14.1666 22.7727 14.4208 22.7836C14.7574 22.7836 14.9783 22.914 15.1345 23.1579C15.3354 22.8723 15.6235 22.7836 15.8928 22.7836C16.4056 22.7836 16.718 23.1156 16.718 23.6252ZM27.6485 22.7835C27.4136 22.7783 27.1933 22.8961 27.0684 23.0936V22.8263H26.6445V24.9523H27.0684V23.7583C27.0684 23.4038 27.2467 23.1824 27.537 23.1824C27.635 23.1864 27.7322 23.2012 27.8268 23.2268L27.9609 22.8279C27.8586 22.8023 27.7539 22.7874 27.6485 22.7835ZM20.778 22.7836C21.1125 22.7836 21.4249 22.8499 21.6478 23.005L21.4286 23.3392C21.2945 23.2729 21.0284 23.1622 20.7591 23.1622C20.5135 23.1622 20.3353 23.2745 20.3353 23.4295C20.3353 23.5621 20.5114 23.629 20.7123 23.6509L20.9353 23.6728C21.4022 23.7397 21.6715 23.9188 21.6715 24.2931C21.6715 24.692 21.3371 24.9797 20.7123 24.9797C20.4882 24.9797 20.109 24.9337 19.7966 24.7123L20.0196 24.3802C20.2269 24.5291 20.4775 24.6068 20.7333 24.6016C21.0683 24.6016 21.2466 24.4893 21.2466 24.3343C21.2466 24.2236 21.0904 24.1348 20.8448 24.0904L20.6218 24.0685C20.1537 24.0017 19.9081 23.8028 19.9081 23.4482C19.9081 23.0274 20.2426 22.7836 20.778 22.7836ZM28.1171 23.8923C28.1177 24.5333 28.5415 24.9984 29.2325 24.9984C29.5449 24.9984 29.7679 24.9321 29.9909 24.7545L29.7679 24.4225C29.61 24.5494 29.4136 24.6197 29.2105 24.6219C28.8334 24.6219 28.541 24.3343 28.541 23.9134C28.541 23.4926 28.8297 23.2071 29.2105 23.2071C29.4136 23.2093 29.61 23.2796 29.7679 23.4065L29.9909 23.0745C29.7679 22.8975 29.5449 22.8306 29.2325 22.8306C28.5635 22.7863 28.1177 23.2508 28.1171 23.8923ZM24.0791 23.891C24.0791 23.2263 24.503 22.7836 25.1278 22.7836V22.7841C25.73 22.7841 26.1318 23.2269 26.1318 23.8915V24.0685H24.5477C24.5919 24.4449 24.9043 24.6219 25.1941 24.6219C25.4207 24.616 25.6396 24.5385 25.8188 24.4006L26.0418 24.7107C25.794 24.9033 25.4867 25.005 25.172 24.9984C24.5251 24.9984 24.0791 24.5556 24.0791 23.891ZM25.1061 23.1826C25.4185 23.1826 25.6414 23.3824 25.6635 23.715H24.5039C24.5707 23.4043 24.7732 23.1826 25.1061 23.1826ZM19.3281 22.8278V23.8908V24.9571H18.9042V24.6897C18.748 24.8892 18.525 24.9998 18.2126 24.9998C17.6099 24.9998 17.1639 24.5346 17.1639 23.8924C17.1639 23.2503 17.6104 22.7851 18.2126 22.7851C18.5272 22.7851 18.748 22.8957 18.9042 23.0952V22.8278H19.3281ZM17.6104 23.8909C17.6104 23.492 17.856 23.1824 18.2799 23.1824C18.6817 23.1824 18.9263 23.4925 18.9263 23.8909C18.9263 24.3117 18.657 24.5993 18.2799 24.5993C17.856 24.6213 17.6104 24.2892 17.6104 23.8909ZM33.5157 23.0936C33.6406 22.8961 33.8609 22.7783 34.0958 22.7835H34.0952C34.2006 22.7874 34.3053 22.8023 34.4076 22.8279L34.2735 23.2268C34.1789 23.2012 34.0817 23.1864 33.9837 23.1824C33.6934 23.1824 33.5151 23.4038 33.5151 23.7583V24.9523H33.0918V22.8263H33.5157V23.0936ZM32.4453 23.8908V22.8278H32.0214V23.0952C31.8653 22.8957 31.6444 22.7851 31.3299 22.7851C30.7277 22.7851 30.2812 23.2503 30.2812 23.8924C30.2812 24.5346 30.7272 24.9998 31.3299 24.9998C31.6423 24.9998 31.8653 24.8892 32.0214 24.6897V24.9571H32.4453V23.8908ZM31.3972 23.1824C30.9733 23.1824 30.7277 23.492 30.7277 23.8909C30.7277 24.2892 30.9733 24.6213 31.3972 24.5993C31.7742 24.5993 32.0435 24.3117 32.0435 23.8909C32.0435 23.4925 31.799 23.1824 31.3972 23.1824ZM35.7032 23.1826C35.2793 23.1826 35.0337 23.4922 35.0337 23.8911H35.0332C35.0332 24.29 35.2788 24.6221 35.7032 24.5996C36.0803 24.5996 36.3496 24.3119 36.3496 23.8911C36.3496 23.4927 36.105 23.1826 35.7032 23.1826Z" fill="#262626"/>
<rect x="21.1572" y="6.70532" width="7.74088" height="12.5347" fill="#FF5F00"/>
<path d="M21.9382 12.9727C21.9387 10.5297 23.0644 8.22111 24.9942 6.70532C21.7018 4.13542 16.9728 4.50898 14.1312 7.56343C11.2896 10.6179 11.2896 15.3275 14.1312 18.382C16.9728 21.4364 21.7018 21.81 24.9942 19.2401C23.0644 17.7243 21.9387 15.4157 21.9382 12.9727Z" fill="#EB001B"/>
<path d="M38 12.9726C38.0022 16.0229 36.2493 18.8066 33.4862 20.1408C30.7231 21.4749 27.4351 21.1251 25.0195 19.24C26.9498 17.7245 28.0757 15.4157 28.0757 12.9726C28.0757 10.5295 26.9498 8.22063 25.0195 6.70521C27.4351 4.82011 30.7231 4.4703 33.4862 5.80442C36.2493 7.13854 38.0022 9.92223 38 12.9726Z" fill="#F79E1B"/>
</svg>
