<svg width="72" height="26" viewBox="0 0 72 26" fill="none" xmlns="http://www.w3.org/2000/svg">
<g clip-path="url(#clip0_85_1195)">
<path d="M24.138 11.0212L19.98 4.85024V11.0212H18.858V3.12324H20.178L24.237 9.12924V3.12324H25.359V11.0212H24.138ZM32.07 9.96524V11.0212H27.065V3.12324H31.993V4.17924H28.275V6.42324H31.663V7.47924H28.275V9.96524H32.07ZM36.6239 11.0212H35.4139V4.21224H32.8399V3.12324H39.1979V4.21224H36.6239V11.0212ZM24.446 21.7552C24.446 23.1962 23.39 24.0212 21.751 24.0212H18.858V16.1232H21.597C23.192 16.1232 24.149 16.8602 24.149 18.1912C24.149 18.9392 23.698 19.5772 22.939 19.9072C23.918 20.1822 24.446 20.8532 24.446 21.7552ZM21.52 17.0912H19.969V19.4672H21.52C22.477 19.4672 22.994 19.0162 22.994 18.2792C22.994 17.5422 22.477 17.0912 21.52 17.0912ZM21.674 20.4352H19.969V23.0532H21.674C22.708 23.0532 23.291 22.5582 23.291 21.7222C23.291 20.9192 22.708 20.4352 21.674 20.4352ZM30.9951 24.0212L30.2801 22.0632H26.8701L26.1441 24.0212H24.9231L27.9481 16.1232H29.2791L32.2821 24.0212H30.9951ZM28.5861 17.4432L27.2331 21.0842H29.9171L28.5861 17.4432ZM38.6507 24.0212L34.4927 17.8502V24.0212H33.3707V16.1232H34.6907L38.7497 22.1292V16.1232H39.8717V24.0212H38.6507ZM42.7877 24.0212H41.5777V16.1232H42.7877V19.7752L46.1317 16.1232H47.5287L44.0087 19.9952L47.6167 24.0212H46.0987L42.7877 20.3582V24.0212ZM49.8991 24.0212H48.6891V16.1232H49.8991V24.0212ZM56.8909 24.0212L52.7329 17.8502V24.0212H51.6109V16.1232H52.9309L56.9899 22.1292V16.1232H58.1119V24.0212H56.8909ZM63.393 24.1862C61.116 24.1862 59.356 22.4592 59.356 20.0612C59.356 17.7292 61.028 15.9582 63.327 15.9582C65.362 15.9582 66.737 17.2012 67.221 18.8402H65.813C65.516 17.8282 64.647 17.0472 63.294 17.0472C61.732 17.0472 60.61 18.2242 60.61 20.0832C60.61 21.8322 61.677 23.1522 63.437 23.1522C64.9 23.1522 65.824 22.2502 66.044 20.8972H63.316V19.9292H67.32C67.364 22.4592 65.813 24.1862 63.393 24.1862Z" fill="#4D4D4D"/>
<path d="M6.95356 4.51539C6.95356 3.81388 7.17817 3.29853 7.58622 3.06278C7.92278 2.86799 8.34961 2.88956 8.75406 3.11884C9.42645 3.5005 10.2079 3.85916 10.9027 3.63131C11.3562 3.48253 11.7072 3.11453 11.9781 2.50502C12.0589 2.32389 11.9766 2.11114 11.7939 2.03064C11.6119 1.95086 11.3974 2.03208 11.3179 2.21392C11.1345 2.62721 10.9243 2.86727 10.6766 2.94849C10.3386 3.05775 9.85761 2.91831 9.11228 2.49496C8.48683 2.13989 7.78122 2.11905 7.22295 2.44105C6.58306 2.81049 6.23133 3.54722 6.23133 4.51539C6.23133 4.71377 6.39311 4.87477 6.59245 4.87477C6.79178 4.87477 6.95356 4.71377 6.95356 4.51539Z" fill="#4D4D4D"/>
<path fill-rule="evenodd" clip-rule="evenodd" d="M7.94445 12.7286C7.94445 13.5213 7.29661 14.1661 6.5 14.1661C5.70339 14.1661 5.05556 13.5213 5.05556 12.7286V10.5723C5.05556 9.77949 5.70339 9.13477 6.5 9.13477C7.29661 9.13477 7.94445 9.77949 7.94445 10.5723V12.7286ZM6.50044 9.85332C6.10177 9.85332 5.77821 10.176 5.77821 10.5721V12.7284C5.77821 13.1244 6.10177 13.4471 6.50044 13.4471C6.8991 13.4471 7.22266 13.1244 7.22266 12.7284V10.5721C7.22266 10.176 6.8991 9.85332 6.50044 9.85332Z" fill="#4D4D4D"/>
<path fill-rule="evenodd" clip-rule="evenodd" d="M0 18.5312V12.0623C0 8.49585 2.91561 5.59351 6.5 5.59351C10.0844 5.59351 13 8.49585 13 12.0623V18.5312C13 22.0976 10.0844 25 6.5 25C2.91561 25 0 22.0976 0 18.5312ZM12.2782 12.0621C12.2782 8.89169 9.68616 6.31206 6.50043 6.31206C3.31471 6.31206 0.722656 8.89169 0.722656 12.0621V18.531C0.722656 21.7014 3.31471 24.281 6.50043 24.281C9.68616 24.281 12.2782 21.7014 12.2782 18.531V12.0621Z" fill="#4D4D4D"/>
</g>
<defs>
<clipPath id="clip0_85_1195">
<rect width="72" height="26" fill="white"/>
</clipPath>
</defs>
</svg>
