<svg width="25" height="23" viewBox="0 0 25 23" fill="none" xmlns="http://www.w3.org/2000/svg">
<path d="M4.284 17.5416L4.03243 18.0917L3.67847 18.8654C3.66353 18.8995 3.67035 18.933 3.68625 18.9475L4.45585 19.6504C4.47573 19.6686 4.50447 19.6737 4.53657 19.6609L5.9944 19.1047L6.24425 19.6547L7.56419 22.5599C7.73838 22.933 8.20135 23.1058 8.64634 22.9323C8.62209 22.9397 9.51628 22.5136 9.51628 22.5136C9.80315 22.3771 9.97263 22.0985 9.94885 21.8108L9.51919 16.9107L9.80587 16.7143C11.5495 15.4708 12.2042 14.9768 13.3863 13.9809L13.945 13.5102L14.3678 14.0871L19.0627 20.4946C19.5228 21.1283 20.462 21.2973 21.174 20.8662C21.2343 20.8312 21.3036 20.7774 21.3885 20.6998L21.7029 20.4127C22.0958 20.0538 22.2419 19.518 22.0835 19.0286L19.2085 10.5564L18.7631 9.17828L19.0364 8.92864L19.0948 8.87572L19.6111 8.43369C21.7589 6.56289 22.3734 5.99861 23.07 5.20027C23.1314 5.12987 23.1908 5.06001 23.2467 4.99264C24.3108 3.69679 24.9159 2.38682 24.9161 1.4332C24.9238 1.15936 24.8472 0.900515 24.6726 0.64789C24.6664 0.637632 24.647 0.617236 24.5753 0.551739C24.5253 0.506118 24.4873 0.477403 24.4475 0.454652C24.2035 0.312819 23.9198 0.243252 23.5935 0.250516C22.569 0.250516 21.146 0.800935 19.7208 1.77724C18.7618 2.42605 18.009 3.10311 15.9393 5.1114L15.1306 5.8651L14.7517 5.75817L4.36713 2.82762C3.82869 2.67523 3.25588 2.80602 2.85162 3.17525L2.53728 3.46235C1.94579 4.00259 1.94579 4.87389 2.53728 5.41412C2.6222 5.49168 2.69154 5.54552 2.76392 5.58776L10.4205 10.2606L9.90438 10.7713C9.22363 11.4448 8.68048 12.0157 8.11703 12.6438C8.03657 12.7335 7.9548 12.8253 7.87039 12.9208C7.61471 13.2099 7.45223 13.3969 6.90182 14.0333L6.68803 14.2805L6.34404 14.2575L1.30313 13.9209C0.975567 13.8987 0.674425 14.0515 0.530144 14.3149L0.0847638 15.0987C-0.115878 15.4491 0.0387709 15.8932 0.5584 16.1614L0.487079 16.1112C0.469535 16.0992 4.284 17.5416 4.284 17.5416Z" fill="#D60F0F"/>
</svg>
