<svg width="92" height="30" viewBox="0 0 92 30" fill="none" xmlns="http://www.w3.org/2000/svg">
<rect x="1" y="1" width="90" height="28" rx="2" stroke="#CACACA"/>
<path d="M77.0567 7.3252L81 15.0003L72.705 22.6869L77.0567 7.3252Z" fill="#018C45"/>
<path d="M74.3146 7.3252L78.2579 15.0003L69.9629 22.6869L74.3146 7.3252Z" fill="#F47920"/>
<path fill-rule="evenodd" clip-rule="evenodd" d="M14.9433 6L11 19.8883H15.165L16.5533 15.1028H18.3383C19.0033 15.1028 19.4233 15.2513 19.61 15.5482C19.7967 15.8452 19.785 16.3477 19.5867 17.0673L19.19 18.4492C19.155 18.5863 19.12 18.7805 19.085 19.0317C19.0797 19.0889 19.0738 19.1479 19.0677 19.2088C19.0469 19.4154 19.024 19.6439 19.015 19.8997H23.2733L23.4133 19.3858C23.1917 19.3629 23.145 19.0774 23.285 18.5292V18.4721L23.7633 16.5305C24.0083 15.6053 24.0317 14.8972 23.8333 14.4175C23.635 13.9264 23.1917 13.6066 22.5033 13.4467C23.3083 13.1269 23.9733 12.6815 24.475 12.1218C24.9883 11.5622 25.35 10.8541 25.595 10.0089C25.9917 8.58122 25.8633 7.56472 25.1983 6.93655C24.5217 6.30838 23.215 6 21.2433 6H14.9433ZM19.3303 11.9735H17.417L18.1403 9.38083H19.9487C20.6953 9.38083 21.1737 9.4722 21.372 9.66636C21.5703 9.86052 21.6053 10.1917 21.4653 10.6829C21.337 11.1626 21.1037 11.4938 20.8003 11.6879C20.497 11.8821 20.007 11.9735 19.3303 11.9735ZM37.2617 9.64355L34.3567 19.8885H30.8333L31.265 18.3923C30.6467 18.9862 30.005 19.443 29.3633 19.7286C28.7333 20.0255 28.0567 20.174 27.3567 20.174C26.7733 20.174 26.2717 20.0712 25.875 19.8656C25.4667 19.66 25.1633 19.3517 24.9533 18.9405C24.7667 18.5864 24.6967 18.141 24.72 17.6042C24.755 17.0788 24.9417 16.1994 25.2917 14.9659L26.7967 9.64355H30.6583L29.1533 14.9316C28.9317 15.7083 28.885 16.2565 28.99 16.542C29.1067 16.839 29.3983 16.9989 29.8767 16.9989C30.3667 16.9989 30.775 16.8276 31.1133 16.4735C31.4517 16.1194 31.72 15.6055 31.9183 14.9088L33.4117 9.63213H37.2617V9.64355ZM43.6083 12.2474H42.2433L43.0483 9.41495H44.4017C45.3117 9.41495 45.8717 9.51774 46.0933 9.72333C46.3267 9.92891 46.3617 10.2944 46.21 10.8312C46.0583 11.3566 45.8133 11.7335 45.4633 11.9391C45.1017 12.1446 44.4833 12.2474 43.6083 12.2474ZM35.8613 19.8883L39.793 6H45.2063C46.3963 6 47.3297 6.06853 47.983 6.21701C48.6363 6.36548 49.1613 6.59391 49.5347 6.92513C50.013 7.35914 50.3047 7.89594 50.433 8.54695C50.5497 9.18655 50.4797 9.94036 50.2347 10.8312C49.7913 12.3845 49.0213 13.5723 47.9247 14.4061C46.8163 15.2284 45.4513 15.6396 43.8297 15.6396H41.298L40.0847 19.8883H35.8613ZM54.1083 15.7881C54.7617 15.6282 55.2983 15.4683 55.7067 15.3084L55.6833 15.5026C55.6766 15.5491 55.6619 15.6032 55.6439 15.6696L55.6439 15.6696L55.6439 15.6697L55.6438 15.67C55.6309 15.7178 55.6163 15.7718 55.6017 15.8338C55.4033 16.5191 55.1117 17.0102 54.7267 17.33C54.3417 17.6384 53.8283 17.7983 53.1867 17.7983C52.8367 17.7983 52.5917 17.7183 52.4517 17.5584C52.3117 17.3871 52.265 17.1587 52.3583 16.8732C52.4867 16.4277 53.07 16.0623 54.1083 15.7881ZM54.7729 19.8886L54.7733 19.8772H58.6579L58.7396 19.5917C58.6229 19.5117 58.5646 19.3861 58.5296 19.2376C58.5063 19.0892 58.5179 18.9178 58.5646 18.7351L60.1863 13.0244C60.3963 12.2592 60.4779 11.6653 60.4079 11.2541C60.3379 10.843 60.1279 10.4775 59.7546 10.1463C59.4629 9.88357 58.9963 9.66657 58.3663 9.51809C57.7363 9.35819 57.0129 9.28967 56.2196 9.28967C54.5163 9.28967 53.1513 9.5752 52.1129 10.1691C51.0746 10.7516 50.3746 11.6196 50.0363 12.7732H53.7929C53.9213 12.4191 54.1196 12.1678 54.3879 11.9965C54.6563 11.8252 54.9829 11.7452 55.3796 11.7452C55.8579 11.7452 56.1963 11.8138 56.3713 11.9508C56.5579 12.0765 56.6046 12.2935 56.5229 12.5904C56.3713 13.1272 55.6713 13.4584 54.4113 13.5955C54.2558 13.6151 54.1133 13.6306 53.9846 13.6445L53.9845 13.6445C53.8139 13.6629 53.6676 13.6788 53.5479 13.6983C51.8446 13.9153 50.6313 14.2694 49.9079 14.7491C49.1846 15.2288 48.6713 15.9826 48.3913 16.9991C48.0996 18.0384 48.1696 18.8493 48.6013 19.409C49.0446 19.98 49.8029 20.2656 50.8996 20.2656C51.6113 20.2656 52.2879 20.1513 52.9179 19.9343C53.5596 19.7173 54.1896 19.3747 54.8079 18.9178L54.7733 19.8772H54.7729V19.8886ZM59.5333 20.8935L58.6817 23.9316C59.0317 23.9545 59.3817 23.9773 59.6967 23.9773C60.0233 24.0001 60.3266 24.0001 60.5949 24.0001H60.595C61.5167 24.0001 62.1933 23.9316 62.6483 23.806C63.1033 23.6804 63.5117 23.4633 63.885 23.155C64.1767 22.938 64.4683 22.6067 64.7833 22.1842C65.0983 21.7501 65.5883 20.9735 66.2767 19.8314L72.3083 9.63213H68.68L65.2733 15.8453L65.3317 9.63213H61.4233L62.0183 19.0205C62.03 19.226 62.03 19.4088 62.0183 19.5801C62.0067 19.74 61.9833 19.8771 61.9367 20.0141C61.855 20.3225 61.715 20.5509 61.505 20.688C61.295 20.825 61.015 20.8935 60.6417 20.8935H59.5333Z" fill="#1C33A2"/>
</svg>
