<svg width="18" height="26" viewBox="0 0 18 26" fill="none" xmlns="http://www.w3.org/2000/svg">
<g clip-path="url(#clip0_184_1929)">
<path d="M17.1076 23.752L14.9847 22.0743C16.104 21.8354 17.0501 20.7047 17.0501 19.5993V5.57431C17.0501 4.28731 15.8093 3.09931 14.4154 3.09931H13.158V1.64309C13.158 1.12823 12.706 0.710938 12.1485 0.710938H11.6116C11.0542 0.710938 10.6018 1.12823 10.6018 1.64309V3.09931H6.94158V1.64309C6.94158 1.12823 6.48951 0.710938 5.93174 0.710938H5.39518C4.83742 0.710938 4.38535 1.12823 4.38535 1.64309V3.09931H3.11799C1.72374 3.09931 0.0688477 4.28702 0.0688477 5.57431V19.5993C0.0688477 20.7208 1.45156 21.8477 2.59515 22.0705L0.488806 23.752C0.0934777 24.068 0.0501413 24.6197 0.392156 24.9849C0.734483 25.3504 1.33184 25.3899 1.72748 25.0739L5.42511 22.0743H12.1725L15.8686 25.0739C16.2642 25.3901 16.8619 25.3504 17.2039 24.9849C17.5459 24.6194 17.5038 24.068 17.1076 23.752ZM4.09072 18.7745C3.35037 18.7745 2.7501 18.2207 2.7501 17.5373C2.7501 16.8534 3.35012 16.2993 4.09072 16.2993C4.83133 16.2993 5.43135 16.8532 5.43135 17.5373C5.43135 18.2204 4.83133 18.7745 4.09072 18.7745ZM13.0281 18.7748C12.2879 18.7748 11.6876 18.2209 11.6876 17.5374C11.6876 16.8535 12.2877 16.2993 13.0281 16.2993C13.7685 16.2993 14.3688 16.8532 14.3688 17.5374C14.3686 18.2206 13.7685 18.7748 13.0281 18.7748ZM14.3688 10.5186C14.3688 10.9769 13.9348 11.3493 13.4006 11.3493H3.71833C3.18324 11.3493 2.7501 10.9769 2.7501 10.5186V7.23C2.7501 6.77118 3.18324 6.39931 3.71833 6.39931H13.4006C13.9348 6.39931 14.3688 6.77118 14.3688 7.23V10.5186Z" fill="#666666"/>
</g>
<defs>
<clipPath id="clip0_184_1929">
<rect width="17.875" height="24.75" fill="white" transform="translate(0.0698242 0.625)"/>
</clipPath>
</defs>
</svg>
