<svg width="58" height="28" viewBox="0 0 58 28" fill="none" xmlns="http://www.w3.org/2000/svg">
<path fill-rule="evenodd" clip-rule="evenodd" d="M20.0453 7.10595H47.3958C50.1433 7.10969 52.4286 7.96717 54.3591 9.72566C56.2583 11.4648 57.1871 13.5361 57.216 16.0642L57.6079 16.0607L57.216 16.057C57.1871 18.5328 56.2601 20.5808 54.3576 22.3473L54.3591 22.3456C52.4271 24.1052 50.1404 24.9869 47.3958 24.9901H20.0453C19.8288 24.9901 19.6534 25.1634 19.6534 25.3773C19.6534 25.591 19.8288 25.7643 20.0453 25.7643H47.3958C50.3128 25.7677 52.8292 24.8013 54.8913 22.9142L54.8928 22.9124C56.9335 21.0323 57.9784 18.7338 58 16.0642V16.057C57.9784 13.3401 56.9353 11.0153 54.891 9.15679C52.8278 7.26885 50.3102 6.32834 47.3958 6.3318H20.0453C19.8288 6.3318 19.6534 6.50508 19.6534 6.71873C19.6534 6.93266 19.8288 7.10595 20.0453 7.10595ZM20.0453 7.10595H47.3958C50.1433 7.10969 52.4286 7.96717 54.3591 9.72566C56.2583 11.4648 57.1871 13.5361 57.216 16.0642L57.6079 16.0607L57.216 16.057C57.1871 18.5328 56.2601 20.5808 54.3576 22.3473L54.3591 22.3456C52.4271 24.1052 50.1404 24.9869 47.3958 24.9901H20.0453C19.8288 24.9901 19.6534 25.1634 19.6534 25.3773C19.6534 25.591 19.8288 25.7643 20.0453 25.7643H47.3958C50.3128 25.7677 52.8292 24.8013 54.8913 22.9142L54.8928 22.9124C56.9335 21.0323 57.9784 18.7338 58 16.0642V16.057C57.9784 13.3401 56.9353 11.0153 54.891 9.15679C52.8278 7.26885 50.3102 6.32834 47.3958 6.3318H20.0453C19.8288 6.3318 19.6534 6.50508 19.6534 6.71873C19.6534 6.93266 19.8288 7.10595 20.0453 7.10595Z" fill="#4D4D4D"/>
<path fill-rule="evenodd" clip-rule="evenodd" d="M17.6182 6.89404C19.1857 7.79332 20.424 9.01726 21.3338 10.541C22.2442 12.0896 22.6991 13.8129 22.7245 15.6862C22.6991 17.5848 22.2442 19.3078 21.3338 20.8316C20.424 22.3554 19.1857 23.5791 17.6182 24.5037C16.0761 25.4024 14.3575 25.8522 12.4112 25.8773C10.5152 25.8522 8.77116 25.4024 7.22906 24.5037C5.66186 23.5791 4.42322 22.3554 3.53851 20.8316C2.60333 19.3078 2.14843 17.6096 2.12305 15.6862C2.14843 13.8129 2.60333 12.0896 3.53851 10.541C4.42322 9.01726 5.66186 7.79332 7.22906 6.89404C8.77116 5.99505 10.5152 5.52018 12.4112 5.49538C14.3324 5.52018 16.0761 5.99505 17.6182 6.89404ZM12.4115 3.42212C10.1111 3.4472 8.0131 3.99646 6.14244 5.09555C4.29717 6.19464 2.83093 7.66826 1.69354 9.49134C0.581243 11.3401 0.0253856 13.4131 0 15.686C0.0253856 17.9591 0.581243 20.0322 1.69354 21.8803C2.83093 23.7288 4.29717 25.2027 6.14244 26.3266C8.0131 27.4009 10.1111 27.9498 12.4115 28C14.7371 27.9752 16.835 27.4257 18.7057 26.3266C20.5761 25.2027 22.0674 23.7288 23.1797 21.8803C24.2666 20.0322 24.8478 17.9591 24.8735 15.686C24.8478 13.4131 24.292 11.3401 23.1797 9.49134C22.0674 7.66826 20.5761 6.19464 18.7057 5.09555C16.835 3.99646 14.7371 3.4472 12.4115 3.42212Z" fill="#4D4D4D"/>
<path fill-rule="evenodd" clip-rule="evenodd" d="M28.0079 12.1392H28.8673L29.777 14.6115L30.7128 12.1392H31.5467L30.1313 15.661H29.4488L28.0079 12.1392Z" fill="#4D4D4D"/>
<path fill-rule="evenodd" clip-rule="evenodd" d="M37.8906 15.6365H38.6744V12.9637H37.8906V15.6365ZM37.8652 12.6639H38.6741V11.9893H37.8652V12.6639ZM35.4395 12.9637H36.1978V13.4887C36.2737 13.3137 36.4 13.1638 36.5261 13.0637C36.6527 12.9389 36.8295 12.889 37.0574 12.9138V13.7133H37.032C36.7537 13.7133 36.5515 13.7883 36.4254 13.9382C36.2737 14.0879 36.1978 14.3379 36.1978 14.6622V15.6365H35.4395V12.9637ZM33.7962 14.0886C33.7708 13.9133 33.7203 13.7886 33.6187 13.6635C33.5181 13.5633 33.3914 13.5133 33.24 13.5133C33.0632 13.5133 32.9368 13.5633 32.8356 13.6635C32.7343 13.7886 32.6585 13.9133 32.6337 14.0886H33.7962ZM33.2905 15.7114C33.1136 15.7114 32.9111 15.6612 32.7343 15.5863C32.5575 15.5364 32.4058 15.4363 32.2794 15.3115C32.1531 15.1866 32.0772 15.0615 32.0016 14.8868C31.9255 14.7121 31.875 14.5125 31.875 14.3122C31.875 14.1129 31.9001 13.9379 31.976 13.7626C32.0518 13.5876 32.1277 13.4382 32.2543 13.3134C32.3804 13.1883 32.5067 13.0885 32.6838 13.0133C32.861 12.9386 33.0375 12.9135 33.24 12.9135C33.4676 12.9135 33.6444 12.9634 33.8212 13.0386C33.9983 13.1133 34.1247 13.2136 34.2259 13.363C34.3269 13.4884 34.4025 13.6378 34.4786 13.8128C34.5291 13.9875 34.5548 14.1873 34.5548 14.3623L34.5291 14.4624V14.5621H32.6585C32.6838 14.7371 32.7594 14.862 32.886 14.962C33.0124 15.0367 33.1387 15.0869 33.3156 15.0869C33.4422 15.0869 33.5432 15.0615 33.6695 15.0116C33.7457 14.9868 33.8466 14.9119 33.9727 14.8118L34.4025 15.1866C34.2764 15.3617 34.1247 15.4862 33.9476 15.5612C33.7708 15.6612 33.5432 15.7114 33.2905 15.7114Z" fill="#4D4D4D"/>
<path fill-rule="evenodd" clip-rule="evenodd" d="M41.0509 15.6857C40.7728 15.6857 40.5198 15.6358 40.2421 15.536C39.9894 15.4611 39.7618 15.3111 39.5342 15.1113L40.0142 14.5869C40.1659 14.7117 40.3176 14.8115 40.4947 14.8864C40.6716 14.9617 40.8487 15.0113 41.0509 15.0113C41.2277 15.0113 41.3541 14.9865 41.4299 14.9115C41.5058 14.8616 41.5563 14.7864 41.5563 14.6869V14.5367L41.4299 14.4369L41.2277 14.3372L40.8487 14.2118L40.3681 14.0872L39.9894 13.8874L39.7618 13.5872C39.711 13.4627 39.6856 13.3378 39.6856 13.1631V13.138L39.7618 12.7133C39.8376 12.5888 39.9135 12.4639 40.0396 12.3887C40.1408 12.2886 40.2674 12.214 40.4189 12.1638C40.5706 12.1139 40.7471 12.0891 40.9246 12.0891C41.1772 12.0891 41.4048 12.139 41.6321 12.214C41.8597 12.2886 42.0619 12.3887 42.2388 12.5386L41.8346 13.1129L41.3541 12.8635C41.2026 12.7883 41.0509 12.7635 40.8995 12.7635C40.7471 12.7635 40.6462 12.7883 40.5706 12.8635C40.4947 12.9131 40.444 12.9881 40.444 13.0631V13.0882L40.4947 13.2378L40.596 13.3378L40.8487 13.4379L41.2277 13.5377L41.708 13.7127C41.8346 13.7623 41.9607 13.8378 42.0619 13.9122L42.2642 14.187C42.3146 14.3118 42.34 14.4369 42.34 14.5869V14.6114C42.34 14.7864 42.3146 14.9363 42.2388 15.0612C42.1883 15.1863 42.1127 15.3111 41.9861 15.4109C41.8597 15.4859 41.7334 15.5608 41.5563 15.6107C41.4048 15.6609 41.2277 15.6857 41.0509 15.6857Z" fill="#4D4D4D"/>
<path fill-rule="evenodd" clip-rule="evenodd" d="M43.326 15.636H44.113V12.9632H43.326V15.636ZM43.3005 12.6637H44.1127V11.989H43.3005V12.6637Z" fill="#4D4D4D"/>
<path fill-rule="evenodd" clip-rule="evenodd" d="M48.9873 12.9635H49.746V13.3383L49.8974 13.1883L50.0742 13.0387L50.2764 12.9387L50.5297 12.9136C50.8329 12.9136 51.0602 13.0133 51.2119 13.1883C51.389 13.3631 51.4649 13.5877 51.4649 13.9126V15.6362H50.6811V14.1378C50.6811 13.9628 50.6558 13.8382 50.5802 13.7379C50.504 13.6632 50.378 13.613 50.2259 13.613C50.0742 13.613 49.9482 13.6632 49.872 13.7379C49.7961 13.8382 49.746 13.9628 49.746 14.1378V15.6362H48.9873V12.9635ZM46.5613 14.7867L46.8394 14.7371C46.9152 14.712 46.966 14.6872 47.0416 14.6117C47.092 14.5621 47.1425 14.4871 47.1679 14.4125C47.1933 14.3375 47.2187 14.2622 47.2187 14.1625L47.1679 13.9125C47.1425 13.8381 47.092 13.7626 47.0416 13.713L46.8394 13.5876L46.5613 13.538L46.3086 13.5876L46.1064 13.713C46.0305 13.7626 45.98 13.8381 45.9549 13.9125L45.9042 14.1625C45.9042 14.3623 45.98 14.5125 46.1064 14.6117C46.2324 14.7371 46.3845 14.7867 46.5613 14.7867ZM46.4854 16.4357L45.8534 16.3605C45.6261 16.3357 45.449 16.2604 45.2721 16.1607L45.5502 15.5863L45.98 15.7859L46.46 15.836C46.7127 15.836 46.9152 15.7859 47.0416 15.6613C47.1679 15.5365 47.2187 15.3617 47.2187 15.1118V14.9869C47.1174 15.1118 46.9908 15.2363 46.8644 15.3116C46.7381 15.3865 46.5613 15.4113 46.334 15.4113C46.1819 15.4113 46.0305 15.3865 45.8788 15.3366C45.7524 15.2865 45.6261 15.2115 45.4994 15.087C45.3985 14.9869 45.3229 14.8621 45.2468 14.7121C45.1709 14.5371 45.1455 14.3624 45.1455 14.1626C45.1455 13.9628 45.1709 13.7881 45.2468 13.6378C45.3229 13.4631 45.3985 13.3383 45.4994 13.2382C45.6261 13.1134 45.7524 13.0387 45.9042 12.9885L46.334 12.9136C46.5613 12.9136 46.7381 12.9635 46.8644 13.0387C46.9908 13.1134 47.1174 13.1883 47.2187 13.3135V12.9635H47.977V15.0368C47.977 15.5111 47.8755 15.8608 47.6485 16.0854C47.5218 16.2108 47.3447 16.3106 47.1679 16.3605L46.4854 16.4357Z" fill="#4D4D4D"/>
<path fill-rule="evenodd" clip-rule="evenodd" d="M29.9793 20.0568C29.7015 20.0568 29.4488 20.0069 29.1704 19.9071C28.9177 19.8322 28.6904 19.6822 28.4628 19.4824L28.9431 18.958C29.0948 19.0828 29.2463 19.1828 29.4234 19.2578C29.6002 19.3328 29.777 19.3824 29.9793 19.3824C30.1564 19.3824 30.2827 19.3576 30.3589 19.2826C30.4344 19.2327 30.4849 19.1578 30.4849 19.058V18.9081L30.3589 18.808L30.1564 18.7083L29.777 18.5831L29.2971 18.4583L28.9177 18.2588L28.6904 17.9589C28.6397 17.8338 28.6146 17.7089 28.6146 17.5342V17.5091L28.6904 17.0844C28.766 16.9599 28.8419 16.835 28.9685 16.7598C29.0695 16.66 29.1958 16.585 29.3472 16.5349C29.4993 16.485 29.6761 16.4602 29.8529 16.4602C30.1056 16.4602 30.3332 16.5101 30.5608 16.585C30.7884 16.66 30.9909 16.7598 31.1674 16.91L30.763 17.4843L30.2827 17.2346C30.1313 17.1594 29.9793 17.1346 29.8275 17.1346C29.6761 17.1346 29.5748 17.1594 29.4993 17.2346C29.4234 17.2842 29.3726 17.3592 29.3726 17.4342V17.4595L29.4234 17.6092L29.5244 17.7089L29.777 17.809L30.1564 17.9087L30.6367 18.0838C30.763 18.1333 30.8893 18.2089 30.9909 18.2833L31.1928 18.5583C31.2433 18.6832 31.2684 18.808 31.2684 18.958V18.9828C31.2684 19.1578 31.2433 19.3074 31.1674 19.4325C31.1166 19.5574 31.0411 19.6822 30.9147 19.782C30.7884 19.8572 30.662 19.9319 30.4849 19.9818C30.3332 20.032 30.1564 20.0568 29.9793 20.0568Z" fill="#4D4D4D"/>
<path fill-rule="evenodd" clip-rule="evenodd" d="M37.133 20.0823C36.9311 20.0823 36.754 20.0322 36.5771 19.9575C36.4003 19.8819 36.2486 19.7822 36.1222 19.6573C35.9959 19.5328 35.92 19.4076 35.8442 19.2329C35.7683 19.0582 35.7178 18.8581 35.7178 18.6834C35.7178 18.4839 35.7683 18.3088 35.8442 18.1335C35.92 17.9591 35.9959 17.8092 36.1222 17.6843C36.2486 17.5592 36.4003 17.4597 36.5771 17.3842C36.754 17.3098 36.9311 17.2844 37.1584 17.2844C37.4114 17.2844 37.6136 17.3346 37.7904 17.4096C37.9672 17.4845 38.0936 17.5846 38.2202 17.7339L37.765 18.2339C37.6894 18.1335 37.5882 18.0589 37.4872 18.0087C37.4114 17.9591 37.285 17.9343 37.133 17.9343L36.8803 17.9842L36.6784 18.1589L36.5264 18.3835L36.4759 18.6583V18.6834C36.4759 18.7834 36.5013 18.8835 36.5264 18.9581C36.5517 19.0582 36.6022 19.1329 36.6784 19.2078C36.7289 19.2828 36.8044 19.333 36.8803 19.3578C36.9562 19.3826 37.0577 19.4076 37.1835 19.4076C37.3104 19.4076 37.4114 19.3826 37.5123 19.333L37.7904 19.1329L38.2453 19.5824C38.1189 19.7075 37.9672 19.8323 37.7904 19.9321C37.6136 20.0322 37.4114 20.0823 37.133 20.0823ZM34.0999 18.4592C34.0748 18.2839 34.024 18.1591 33.923 18.0341C33.8218 17.9342 33.6954 17.8839 33.5437 17.8839C33.3669 17.8839 33.2405 17.9342 33.1393 18.0341C33.038 18.1591 32.9625 18.2839 32.9374 18.4592H34.0999ZM33.5945 20.0823C33.4174 20.0823 33.2154 20.0322 33.038 19.9575C32.8615 19.9073 32.7095 19.8075 32.5834 19.6824C32.4568 19.5576 32.3809 19.4327 32.3051 19.258C32.2295 19.083 32.1787 18.8835 32.1787 18.6834C32.1787 18.4839 32.2041 18.3088 32.28 18.1335C32.3558 17.9591 32.4317 17.8092 32.558 17.6843C32.6844 17.5592 32.8107 17.4597 32.9875 17.3842C33.1647 17.3098 33.3412 17.2844 33.5437 17.2844C33.7713 17.2844 33.9481 17.3346 34.1252 17.4096C34.3021 17.4845 34.4287 17.5846 34.5297 17.7339C34.6306 17.8593 34.7068 18.0087 34.7826 18.1837C34.8328 18.3584 34.8585 18.5585 34.8585 18.7333L34.8328 18.8333V18.9331H32.9625C32.9875 19.1081 33.0637 19.2329 33.1898 19.333C33.3161 19.4076 33.4427 19.4578 33.6193 19.4578C33.7462 19.4578 33.8472 19.4327 33.9732 19.3826C34.0494 19.3578 34.1506 19.2828 34.277 19.183L34.7068 19.5576C34.5801 19.7326 34.4287 19.8574 34.2513 19.9321C34.0748 20.0322 33.8472 20.0823 33.5945 20.0823Z" fill="#4D4D4D"/>
<path fill-rule="evenodd" clip-rule="evenodd" d="M40.0903 20.0568C39.8125 20.0568 39.5849 19.9574 39.4081 19.7821C39.2563 19.607 39.1805 19.3824 39.1805 19.0581V17.3345H39.9388V18.8332C39.9388 19.0079 39.9896 19.1327 40.0652 19.2328C40.141 19.3075 40.2677 19.3576 40.4191 19.3576C40.5455 19.3576 40.6718 19.3075 40.7731 19.2328C40.8489 19.1327 40.8997 19.0079 40.8997 18.8332V17.3345H41.6575V20.0069H40.8997V19.6324L40.7474 19.7821L40.5709 19.932L40.3684 20.032L40.0903 20.0568Z" fill="#4D4D4D"/>
<path fill-rule="evenodd" clip-rule="evenodd" d="M50.2521 19.4075C50.3534 19.4075 50.4543 19.3824 50.5305 19.3576L50.7324 19.2077C50.7829 19.1327 50.8337 19.058 50.8588 18.9828L50.9092 18.6832V18.6581L50.8588 18.3583L50.7324 18.1334L50.5305 17.984C50.4543 17.9589 50.3534 17.9341 50.2521 17.9341L49.9991 17.984L49.7969 18.1334L49.6452 18.3583C49.6201 18.4335 49.5947 18.5333 49.5947 18.6581V18.6832L49.6452 18.9828C49.6709 19.058 49.7214 19.1327 49.7969 19.2077L49.9991 19.3576L50.2521 19.4075ZM50.075 20.057C49.8982 20.057 49.7467 20.0322 49.5947 19.9575C49.4687 19.9073 49.342 19.8323 49.2157 19.7075C49.0893 19.5824 49.0135 19.4327 48.9376 19.258C48.8617 19.083 48.8367 18.9083 48.8367 18.6834V18.6583C48.8367 18.4337 48.8617 18.2339 48.9376 18.0589C49.0135 17.8841 49.0893 17.7593 49.2157 17.6347C49.3169 17.5093 49.4433 17.4344 49.5947 17.3842C49.7467 17.3098 49.8982 17.2844 50.075 17.2844C50.2772 17.2844 50.4543 17.3346 50.581 17.4096C50.707 17.4845 50.8337 17.5592 50.9092 17.6843V16.3604H51.6676V20.0071H50.9092V19.6325C50.8337 19.7574 50.707 19.8574 50.581 19.9321C50.4543 20.0071 50.2772 20.057 50.075 20.057ZM47.194 18.4594C47.1686 18.2841 47.1181 18.1594 47.0171 18.0343C46.9159 17.9344 46.7895 17.8842 46.6378 17.8842C46.4607 17.8842 46.3346 17.9344 46.2331 18.0343C46.1321 18.1594 46.0563 18.2841 46.0312 18.4594H47.194ZM46.6882 20.0822C46.5108 20.0822 46.3089 20.032 46.1318 19.9574C45.9552 19.9072 45.8029 19.8074 45.6772 19.6823C45.5505 19.5575 45.4747 19.4326 45.3988 19.2579C45.3232 19.0829 45.2725 18.8834 45.2725 18.6833C45.2725 18.4837 45.2976 18.3087 45.3734 18.1334C45.4493 17.959 45.5251 17.8091 45.6515 17.6842C45.7778 17.5591 45.9045 17.4596 46.081 17.3841C46.2584 17.3097 46.4349 17.2843 46.6374 17.2843C46.8648 17.2843 47.0419 17.3345 47.219 17.4094C47.3958 17.4844 47.5222 17.5845 47.6234 17.7338C47.7241 17.8592 47.8002 18.0086 47.8758 18.1836C47.9266 18.3583 47.952 18.5584 47.952 18.7331L47.9266 18.8332V18.933H46.0559C46.081 19.108 46.1572 19.2328 46.2835 19.3329C46.4099 19.4075 46.5365 19.4577 46.713 19.4577C46.8397 19.4577 46.9409 19.4326 47.067 19.3825C47.1428 19.3577 47.2441 19.2827 47.3704 19.1829L47.8002 19.5575C47.6736 19.7325 47.5222 19.8573 47.345 19.932C47.1682 20.032 46.9409 20.0822 46.6882 20.0822ZM42.871 17.3345H43.6294V17.8593C43.7053 17.6843 43.8316 17.5344 43.9579 17.4343C44.0843 17.3098 44.2614 17.2596 44.4887 17.2844V18.0839H44.4636C44.1855 18.0839 43.9833 18.1589 43.8567 18.3088C43.7053 18.4584 43.6294 18.7084 43.6294 19.0328V20.007H42.871V17.3345Z" fill="#4D4D4D"/>
<path fill-rule="evenodd" clip-rule="evenodd" d="M52.9824 5.99463H54.069V6.24432H53.6903V7.26816H53.3868V6.24432H52.9824V5.99463ZM55.6873 5.99463V7.26816H55.3841V6.44441L55.0552 6.99338H55.0051L54.6765 6.44441V7.26816H54.373V5.99463H54.7013L55.0552 6.54417L55.3841 5.99463H55.6873Z" fill="#4D4D4D"/>
<path fill-rule="evenodd" clip-rule="evenodd" d="M18.8564 10.7157H19.7919V9.76627H18.8564V10.7157ZM18.8564 8.2921H19.7919V7.36831H18.8564V8.2921ZM20.3232 4.92072H21.2841V3.99635H20.3232V4.92072ZM23.1542 2.99709H24.9992V1.99805H23.1542V4.9205H21.2836V5.86937H19.691V6.51897H18.8568V7.36837H17.8457V8.84199H16.8851V9.76607H16.2534V10.7155H15.5455C14.1298 12.7883 13.0175 14.8365 12.2086 16.9099C10.3888 14.3867 8.69492 12.8883 7.12801 12.3887C6.69821 12.2638 6.39475 12.3636 6.21792 12.7381C6.0411 13.1129 6.19254 13.5872 6.72359 14.1373C8.31589 15.8604 9.78212 18.3085 11.1217 21.4308C11.3239 21.9302 11.7791 22.2049 12.5121 22.2796C13.1946 22.3298 13.6495 22.0798 13.8517 21.5303C14.8377 18.9578 15.9753 16.7597 17.2898 14.8864V13.8124H18.0479V12.8883H18.8568V11.7642H19.7922V10.7155H20.7525V9.76607H21.5112V8.6171H22.3451V7.84295H23.1542V5.86937H24.0891V4.9205H25.1763V3.97134H24.0891V4.9205H23.1542V5.86937H22.2187V6.79403H21.2836V5.86937H22.2187V2.99709H23.1542Z" fill="#4D4D4D"/>
<path fill-rule="evenodd" clip-rule="evenodd" d="M23.1543 3.97181H24.0892V2.99756H23.1543V3.97181Z" fill="#4D4D4D"/>
<path fill-rule="evenodd" clip-rule="evenodd" d="M18.8574 8.29269H19.7929V7.3689H18.8574V8.29269Z" fill="#4D4D4D"/>
<path fill-rule="evenodd" clip-rule="evenodd" d="M26.0614 2.99733H27.0724V1.99829H26.0614V2.99733Z" fill="#4D4D4D"/>
<path fill-rule="evenodd" clip-rule="evenodd" d="M25.0752 1.99831H26.0865V0.999268H25.0752V1.99831Z" fill="black"/>
<path fill-rule="evenodd" clip-rule="evenodd" d="M26.0614 0.999331H27.0724V0H26.0614V0.999331Z" fill="#4D4D4D"/>
</svg>
