<svg width="100" height="42" viewBox="0 0 100 42" fill="none" xmlns="http://www.w3.org/2000/svg">
<path d="M61.3509 29.3163C62.3675 29.1387 63.3675 30.0105 63.5842 31.2374C63.8009 32.4804 63.1675 33.6266 62.1509 33.8042H62.1175C61.0509 33.9979 59.9842 34.0947 58.9009 34.1109C56.6509 34.1109 54.8342 33.5943 53.4175 32.5288C51.6009 31.1889 50.6509 29.058 50.6509 26.4105V1.80806C50.6509 0.807169 51.7009 0 53.0009 0C54.3009 0 55.3509 0.807169 55.3509 1.80806V26.4105C55.3509 27.6213 55.6675 28.4607 56.2842 28.9289C56.8342 29.3486 58.2009 29.8652 61.3009 29.3325L61.3509 29.3163Z" fill="#D60F0F"/>
<path d="M13.8507 31.9643C13.0007 31.9643 12.2007 30.7535 11.7841 29.9625C9.60074 25.8459 7.93408 22.5688 6.60075 19.9375C3.88409 14.5617 2.41742 11.995 1.18409 11.0748C-0.0325726 10.1546 -0.282572 8.97615 0.30076 7.92683C0.917426 6.86137 2.31742 6.47393 3.41742 7.07123C3.43409 7.07123 3.43409 7.08738 3.45076 7.08738C6.06742 8.52414 7.43408 11.2201 10.8341 17.9357C12.1507 20.5348 13.7841 23.7796 15.9341 27.8154C16.4674 28.8163 16.8341 30.8342 15.9174 31.4961L13.8507 31.9643Z" fill="#D60F0F"/>
<path d="M68.8678 22.2125C68.8678 16.2394 63.8678 11.3964 57.7012 11.3964H47.8178C46.7845 11.3964 45.9512 10.3794 45.9512 9.1202C45.9512 7.86102 46.7845 6.84399 47.8178 6.84399H57.7012C66.4678 6.84399 73.5678 13.7211 73.5678 22.2125V32.3343C73.5678 33.3352 72.5178 34.1424 71.2178 34.1424C69.9178 34.1424 68.8678 33.3352 68.8678 32.3343V22.2125Z" fill="#D60F0F"/>
<path d="M40.7011 25.0713V25.3135C40.7011 27.9126 38.5344 29.5915 35.1178 29.5915C31.7011 29.5915 29.5178 27.9125 29.5178 25.3296C29.5178 22.7305 31.7178 21.0516 35.1178 21.0516H35.3178C38.8678 21.0516 44.9844 22.6337 45.4011 22.7628V18.4364C43.1344 17.6615 39.5178 16.4992 35.3178 16.4992H35.1178C28.8178 16.4992 24.8178 20.4543 24.8178 25.3296C24.8178 30.2049 28.8178 34.1439 35.1178 34.1439C41.4178 34.1439 45.4178 30.2049 45.4178 25.3296V25.1036L45.4011 15.6598C45.4011 10.7845 40.5511 6.84549 35.1178 6.84549L34.2178 6.82935C27.0511 6.82935 21.4511 8.70197 17.3511 17.8714C17.0178 18.614 16.7011 19.3566 16.3845 20.0992L16.3511 20.196C15.3678 22.5368 14.8011 24.2642 13.3845 27.4282C10.7345 33.3529 8.36782 36.8075 4.75116 37.0013C2.80117 37.1143 2.31783 38.3734 2.55117 39.6326C2.7845 40.8918 3.61783 41.6667 4.75116 41.6667C10.6345 41.6667 14.3178 36.4201 17.8345 28.9457L17.8845 28.8489C18.4178 27.6381 18.9345 26.3789 19.4678 25.0552C20.1678 23.2956 20.9011 21.4714 21.7011 19.6794C24.8345 12.6732 28.3845 11.3818 34.2345 11.3818H35.1344C37.6511 11.3818 40.7178 13.0607 40.7178 15.6436V25.0229" fill="#D60F0F"/>
<path d="M95.2999 25.0698V25.312C95.2999 27.9111 93.0999 29.59 89.6999 29.59C86.2999 29.59 84.0999 27.9111 84.0999 25.3281C84.0999 22.729 86.2999 21.0501 89.6999 21.0501H89.8999C93.4499 21.0501 99.5666 22.6322 99.9832 22.7613V18.4349C97.7166 17.66 94.0833 16.4977 89.8999 16.4977H89.6999C83.3999 16.4977 79.3999 20.4528 79.3999 25.3281C79.3999 30.2034 83.3999 34.1424 89.6999 34.1424C95.9999 34.1424 99.9999 30.2034 99.9999 25.3281V25.1021L99.9832 15.6583C99.9832 10.783 95.1332 6.86014 89.6999 6.86014C89.6999 6.86014 88.0166 6.84399 87.6666 6.84399C76.1 6.84399 68.8833 14.1569 68.8833 24.2627H73.5833C73.5833 16.6753 78.7 11.3964 87.6666 11.3964C88.0833 11.3964 89.3833 11.4126 89.3833 11.4126C92.7499 11.4126 95.3166 13.0753 95.3166 15.6583L95.2999 25.0698Z" fill="#D60F0F"/>
</svg>
